<?xml version="1.0" standalone="no"?>
<!DOCTYPE svg PUBLIC "-//W3C//DTD SVG 20010904//EN"
 "http://www.w3.org/TR/2001/REC-SVG-20010904/DTD/svg10.dtd">
<svg version="1.0" xmlns="http://www.w3.org/2000/svg"
 width="869.000000pt" height="1817.000000pt" viewBox="0 0 869.000000 1817.000000"
 preserveAspectRatio="xMidYMid meet">

<g transform="translate(0.000000,1817.000000) scale(0.100000,-0.100000)"
fill="#000000" stroke="none">
<path d="M5702 17570 c0 -14 2 -19 5 -12 2 6 2 18 0 25 -3 6 -5 1 -5 -13z"/>
<path d="M6922 17570 c0 -14 2 -19 5 -12 2 6 2 18 0 25 -3 6 -5 1 -5 -13z"/>
<path d="M7632 17570 c0 -14 2 -19 5 -12 2 6 2 18 0 25 -3 6 -5 1 -5 -13z"/>
<path d="M8142 17570 c0 -14 2 -19 5 -12 2 6 2 18 0 25 -3 6 -5 1 -5 -13z"/>
<path d="M5220 17570 c0 -6 85 -10 235 -10 150 0 235 4 235 10 0 6 -85 10
-235 10 -150 0 -235 -4 -235 -10z"/>
<path d="M6430 17570 c0 -6 87 -10 240 -10 153 0 240 4 240 10 0 6 -87 10
-240 10 -153 0 -240 -4 -240 -10z"/>
<path d="M7650 17570 c0 -6 87 -10 240 -10 153 0 240 4 240 10 0 6 -87 10
-240 10 -153 0 -240 -4 -240 -10z"/>
<path d="M1050 17250 l0 -140 55 0 55 0 0 85 0 85 80 0 80 0 0 55 0 55 -135 0
-135 0 0 -140z"/>
<path d="M4710 17250 l0 -140 50 0 50 0 0 58 c0 31 3 94 7 140 l6 82 -57 0
-56 0 0 -140z"/>
<path d="M4834 17376 c-3 -8 -4 -31 -2 -52 l3 -39 69 -3 c38 -2 72 1 75 7 4 5
5 30 3 55 l-4 46 -69 0 c-50 0 -71 -4 -75 -14z"/>
<path d="M6057 17343 c1 -27 2 -90 2 -140 l1 -93 50 0 50 0 0 85 0 85 85 0
c49 0 85 4 86 10 1 6 1 21 1 35 0 71 12 65 -139 65 l-138 0 2 -47z"/>
<path d="M7630 17250 l0 -140 55 0 55 0 0 140 0 140 -55 0 -55 0 0 -140z"/>
<path d="M5110 17279 c0 -8 7 -24 15 -35 18 -24 19 -7 0 26 -9 16 -14 19 -15
9z"/>
<path d="M2161 17254 c0 -11 3 -14 6 -6 3 7 2 16 -1 19 -3 4 -6 -2 -5 -13z"/>
<path d="M2663 17255 c0 -8 4 -15 9 -15 4 0 8 7 8 15 0 8 -4 15 -8 15 -5 0 -9
-7 -9 -15z"/>
<path d="M3687 17263 c-10 -9 -9 -23 1 -23 5 0 9 7 9 15 0 17 -1 18 -10 8z"/>
<path d="M4191 17254 c0 -11 3 -14 6 -6 3 7 2 16 -1 19 -3 4 -6 -2 -5 -13z"/>
<path d="M8218 17103 c7 -3 16 -2 19 1 4 3 -2 6 -13 5 -11 0 -14 -3 -6 -6z"/>
<path d="M6458 17003 c-10 -2 -18 -9 -18 -14 0 -13 13 -11 36 6 19 14 14 17
-18 8z"/>
<path d="M6858 17003 c-10 -2 -18 -9 -18 -14 0 -6 10 -5 23 2 37 20 36 23 -5
12z"/>
<path d="M7248 17003 c-10 -2 -18 -9 -18 -14 0 -6 10 -5 23 2 37 20 36 23 -5
12z"/>
<path d="M7638 17003 c-10 -2 -18 -9 -18 -14 0 -13 13 -11 36 6 19 14 14 17
-18 8z"/>
<path d="M8118 17003 c-10 -2 -18 -9 -18 -14 0 -13 12 -11 34 6 20 15 16 17
-16 8z"/>
<path d="M5168 16903 c12 -2 30 -2 40 0 9 3 -1 5 -23 4 -22 0 -30 -2 -17 -4z"/>
<path d="M5248 16903 c12 -2 32 -2 45 0 12 2 2 4 -23 4 -25 0 -35 -2 -22 -4z"/>
<path d="M5115 16870 c9 -30 13 -35 21 -27 3 3 -2 16 -11 29 l-17 23 7 -25z"/>
<path d="M5168 16883 c12 -2 30 -2 40 0 9 3 -1 5 -23 4 -22 0 -30 -2 -17 -4z"/>
<path d="M5248 16883 c12 -2 32 -2 45 0 12 2 2 4 -23 4 -25 0 -35 -2 -22 -4z"/>
<path d="M6128 16763 c6 -2 18 -2 25 0 6 3 1 5 -13 5 -14 0 -19 -2 -12 -5z"/>
<path d="M6518 16763 c6 -2 18 -2 25 0 6 3 1 5 -13 5 -14 0 -19 -2 -12 -5z"/>
<path d="M2908 16348 l-3 -243 -22 -3 c-13 -2 -23 -6 -23 -10 1 -4 18 -35 39
-70 l39 -63 41 65 c22 36 41 68 41 71 0 3 -11 5 -25 5 l-25 0 0 245 0 245 -30
0 -30 0 -2 -242z"/>
<path d="M5116 16480 c7 -28 12 -35 18 -29 2 2 -2 15 -10 29 l-15 25 7 -25z"/>
<path d="M5168 16493 c12 -2 30 -2 40 0 9 3 -1 5 -23 4 -22 0 -30 -2 -17 -4z"/>
<path d="M5248 16493 c12 -2 32 -2 45 0 12 2 2 4 -23 4 -25 0 -35 -2 -22 -4z"/>
<path d="M1170 16095 c0 -8 4 -15 8 -15 5 0 9 7 9 15 0 8 -4 15 -9 15 -4 0 -8
-7 -8 -15z"/>
<path d="M1681 16094 c0 -11 3 -14 6 -6 3 7 2 16 -1 19 -3 4 -6 -2 -5 -13z"/>
<path d="M2183 16093 c0 -7 6 -13 14 -13 7 0 13 6 13 13 0 8 -6 14 -13 14 -8
0 -14 -6 -14 -14z"/>
<path d="M2703 16095 c0 -8 4 -15 9 -15 4 0 8 4 8 9 0 6 -4 12 -8 15 -5 3 -9
-1 -9 -9z"/>
<path d="M3163 16093 c0 -7 6 -13 12 -13 6 0 12 6 12 13 0 8 -6 14 -12 14 -6
0 -12 -6 -12 -14z"/>
<path d="M3670 16093 c0 -7 6 -13 13 -13 8 0 14 6 14 13 0 8 -6 14 -14 14 -7
0 -13 -6 -13 -14z"/>
<path d="M4191 16094 c0 -11 3 -14 6 -6 3 7 2 16 -1 19 -3 4 -6 -2 -5 -13z"/>
<path d="M4693 16095 c0 -8 4 -15 9 -15 4 0 8 4 8 9 0 6 -4 12 -8 15 -5 3 -9
-1 -9 -9z"/>
<path d="M6059 15858 c0 -46 -1 -108 -1 -138 l-1 -55 51 -3 52 -3 1 110 c1 61
1 123 2 139 1 26 -1 27 -51 30 l-52 3 -1 -83z"/>
<path d="M7795 15752 c17 -10 32 -15 34 -10 4 13 0 15 -34 23 l-30 7 30 -20z"/>
<path d="M7630 15580 l0 -140 55 0 55 0 0 140 0 140 -55 0 -55 0 0 -140z"/>
<path d="M5053 15563 c-26 -10 -13 -43 23 -58 19 -8 33 -19 29 -25 -9 -14 -52
-13 -58 3 -2 6 -7 9 -11 6 -9 -8 21 -39 38 -39 7 0 21 6 32 14 15 12 17 18 8
33 -6 10 -21 20 -34 23 -13 3 -25 11 -28 18 -5 16 45 16 51 0 4 -8 6 -7 6 3 1
23 -27 34 -56 22z"/>
<path d="M5130 15560 c0 -5 9 -10 19 -10 16 0 21 -8 24 -47 l3 -48 2 48 c2 40
5 47 22 47 11 0 20 5 20 10 0 6 -20 10 -45 10 -25 0 -45 -4 -45 -10z"/>
<path d="M5252 15554 c-28 -19 -29 -57 -2 -84 23 -23 39 -25 65 -6 37 27 15
106 -30 106 -6 0 -21 -7 -33 -16z m63 -44 c0 -32 -2 -35 -30 -35 -24 0 -31 5
-33 23 -6 38 5 54 35 50 25 -3 28 -7 28 -38z"/>
<path d="M5357 15563 c-11 -10 -8 -103 3 -103 6 0 10 9 10 20 0 12 7 20 18 20
9 0 23 -9 30 -20 7 -11 17 -20 22 -20 6 0 3 11 -5 24 -11 16 -13 26 -6 31 17
10 13 42 -5 49 -21 8 -59 8 -67 -1z m64 -28 c0 -5 -12 -11 -26 -13 -18 -2 -25
1 -25 13 0 12 7 15 25 13 14 -2 26 -7 26 -13z"/>
<path d="M5470 15515 l0 -55 43 2 42 1 -38 4 c-29 3 -37 8 -35 21 2 9 17 20
33 23 l30 7 -32 1 c-48 2 -45 31 3 31 21 0 33 4 29 10 -3 6 -22 10 -41 10
l-34 0 0 -55z"/>
<path d="M5617 15563 c-11 -10 -8 -103 3 -103 6 0 10 9 10 20 0 27 25 25 44
-2 9 -12 19 -19 22 -15 4 4 1 13 -5 21 -10 11 -9 19 1 36 11 18 10 23 -6 36
-21 15 -58 19 -69 7z m64 -28 c0 -5 -12 -11 -26 -13 -18 -2 -25 1 -25 13 0 12
7 15 25 13 14 -2 26 -7 26 -13z"/>
<path d="M5742 15554 c-28 -19 -29 -57 -2 -84 23 -23 39 -25 65 -6 37 27 15
106 -30 106 -6 0 -21 -7 -33 -16z m63 -44 c0 -32 -2 -35 -30 -35 -24 0 -31 5
-33 23 -6 38 5 54 35 50 25 -3 28 -7 28 -38z"/>
<path d="M5862 15554 c-28 -19 -29 -57 -2 -84 23 -23 39 -25 65 -6 37 27 15
106 -30 106 -6 0 -21 -7 -33 -16z m63 -44 c0 -32 -2 -35 -30 -35 -24 0 -31 5
-33 23 -6 38 5 54 35 50 25 -3 28 -7 28 -38z"/>
<path d="M5966 15563 c-10 -10 -7 -103 4 -103 6 0 10 17 11 38 l1 37 12 -34
c12 -33 36 -55 36 -32 0 5 5 22 12 38 l12 28 6 -40 c7 -38 7 -37 9 18 1 65
-12 74 -29 20 -18 -56 -25 -58 -39 -14 -12 41 -23 55 -35 44z"/>
<path d="M6413 15460 c-13 -5 -23 -14 -23 -20 0 -6 11 -3 25 6 14 9 25 18 25
20 0 5 0 5 -27 -6z"/>
<path d="M7228 15363 c6 -2 18 -2 25 0 6 3 1 5 -13 5 -14 0 -19 -2 -12 -5z"/>
<path d="M4710 15270 l0 -60 55 0 55 0 0 60 0 60 -55 0 -55 0 0 -60z"/>
<path d="M4837 15323 c-9 -8 -9 -76 -1 -97 5 -12 21 -16 75 -16 39 0 69 4 70
10 0 6 1 28 1 50 0 22 -1 45 -1 50 -1 11 -134 14 -144 3z"/>
<path d="M2907 15313 c-4 -3 -7 -114 -7 -245 l0 -238 -26 0 c-30 0 -31 3 20
-83 l40 -66 37 62 c43 70 47 87 20 87 -27 0 -31 34 -31 276 l0 214 -23 0 c-13
0 -27 -3 -30 -7z"/>
<path d="M5835 15165 c4 -22 12 -43 18 -47 19 -12 18 -3 -3 43 l-21 44 6 -40z"/>
<path d="M1170 14945 c0 -8 4 -15 8 -15 5 0 9 7 9 15 0 8 -4 15 -9 15 -4 0 -8
-7 -8 -15z"/>
<path d="M1681 14944 c0 -11 3 -14 6 -6 3 7 2 16 -1 19 -3 4 -6 -2 -5 -13z"/>
<path d="M2183 14943 c0 -7 6 -13 14 -13 7 0 13 6 13 13 0 8 -6 14 -13 14 -8
0 -14 -6 -14 -14z"/>
<path d="M2703 14945 c0 -8 4 -15 9 -15 4 0 8 4 8 9 0 6 -4 12 -8 15 -5 3 -9
-1 -9 -9z"/>
<path d="M3163 14943 c0 -7 6 -13 12 -13 6 0 12 6 12 13 0 8 -6 14 -12 14 -6
0 -12 -6 -12 -14z"/>
<path d="M3670 14943 c0 -7 6 -13 13 -13 8 0 14 6 14 13 0 8 -6 14 -14 14 -7
0 -13 -6 -13 -14z"/>
<path d="M4191 14944 c0 -11 3 -14 6 -6 3 7 2 16 -1 19 -3 4 -6 -2 -5 -13z"/>
<path d="M4693 14945 c0 -8 4 -15 9 -15 4 0 8 4 8 9 0 6 -4 12 -8 15 -5 3 -9
-1 -9 -9z"/>
<path d="M7061 14778 c1 -53 3 -63 8 -38 5 32 10 36 46 41 l40 5 -40 5 c-32 3
-40 8 -40 24 0 16 9 21 45 26 l45 6 -52 1 -53 2 1 -72z"/>
<path d="M7190 14780 c0 -40 4 -70 10 -70 6 0 10 30 10 70 0 40 -4 70 -10 70
-6 0 -10 -30 -10 -70z"/>
<path d="M7252 14778 c0 -40 3 -58 5 -40 6 43 43 45 73 2 12 -16 26 -30 31
-30 6 0 1 14 -11 31 -21 28 -21 31 -5 43 10 7 16 22 13 37 -3 21 -8 24 -55 27
l-53 3 2 -73z m85 51 c21 -21 3 -39 -38 -39 -35 0 -39 3 -39 25 0 22 4 25 33
25 18 0 38 -5 44 -11z"/>
<path d="M7400 14780 l0 -70 58 2 57 2 -53 3 c-51 4 -53 5 -50 31 3 24 8 28
48 33 l45 6 -47 1 c-44 2 -48 4 -48 26 0 22 5 25 48 29 l47 3 -52 2 -53 2 0
-70z"/>
<path d="M7600 14780 l0 -70 53 2 52 2 -48 3 c-46 4 -48 6 -45 31 3 23 9 28
43 33 l40 6 -42 2 c-39 1 -43 4 -43 25 0 22 5 25 48 29 l47 3 -52 2 -53 2 0
-70z"/>
<path d="M7740 14847 c0 -5 9 -21 20 -36 l19 -28 -24 -33 c-14 -19 -23 -36
-20 -38 3 -3 6 -3 8 -1 2 2 13 16 24 32 l21 28 22 -31 c12 -16 26 -30 31 -30
6 0 -2 16 -17 35 -27 35 -27 41 2 85 14 21 12 20 -11 -4 l-27 -29 -24 29 c-13
16 -23 25 -24 21z"/>
<path d="M7883 14780 c0 -41 2 -58 4 -37 2 20 2 54 0 75 -2 20 -4 3 -4 -38z"/>
<path d="M7943 14843 c26 -4 27 -6 27 -69 0 -36 4 -64 10 -64 6 0 10 28 10 64
0 63 1 65 28 69 15 2 -2 4 -38 4 -36 0 -53 -2 -37 -4z"/>
<path d="M8133 14780 c0 -41 2 -58 4 -37 2 20 2 54 0 75 -2 20 -4 3 -4 -38z"/>
<path d="M8180 14780 c0 -40 4 -70 10 -70 6 0 10 30 10 70 0 40 -4 70 -10 70
-6 0 -10 -30 -10 -70z"/>
<path d="M8240 14780 c0 -40 4 -70 10 -70 6 0 10 30 10 70 0 40 -4 70 -10 70
-6 0 -10 -30 -10 -70z"/>
<path d="M6480 14605 l0 -55 140 0 140 0 0 55 0 55 -140 0 -140 0 0 -55z"/>
<path d="M2777 14377 c-21 -32 -21 -37 -3 -37 8 0 16 -5 18 -12 8 -22 15 16 9
47 l-6 29 -18 -27z m13 -17 c0 -5 -5 -10 -11 -10 -5 0 -7 5 -4 10 3 6 8 10 11
10 2 0 4 -4 4 -10z"/>
<path d="M2837 14394 c-4 -4 -7 -23 -7 -41 0 -30 3 -34 23 -31 18 2 22 9 22
38 0 33 -20 51 -38 34z m33 -34 c0 -20 -5 -30 -15 -30 -10 0 -15 10 -15 30 0
20 5 30 15 30 10 0 15 -10 15 -30z"/>
<path d="M2926 14373 c13 -55 21 -60 37 -23 l14 35 7 -32 c10 -44 20 -41 33 7
5 22 6 40 2 40 -5 0 -9 -9 -9 -19 0 -30 -17 -34 -24 -6 -9 35 -22 31 -31 -7
l-7 -33 -9 33 c-12 39 -22 43 -13 5z"/>
<path d="M3077 14393 c-13 -12 -7 -24 18 -33 33 -12 33 -34 0 -28 -13 3 -22 1
-19 -3 3 -5 16 -9 30 -9 34 0 33 37 -1 46 -32 8 -33 28 0 22 13 -3 22 -1 19 3
-6 11 -38 12 -47 2z"/>
<path d="M3041 14354 c0 -11 3 -14 6 -6 3 7 2 16 -1 19 -3 4 -6 -2 -5 -13z"/>
<path d="M5290 14264 c-11 -31 -18 -59 -16 -62 3 -3 8 3 12 12 8 21 64 22 64
1 0 -8 5 -15 11 -15 11 0 7 19 -17 76 -21 51 -31 49 -54 -12z m40 6 c9 -17 8
-20 -9 -20 -14 0 -18 5 -14 20 3 11 7 20 9 20 2 0 8 -9 14 -20z"/>
<path d="M5438 14314 c-12 -11 -10 -114 2 -114 6 0 10 11 10 25 0 21 5 25 30
25 25 0 30 -4 30 -25 0 -14 5 -25 10 -25 6 0 10 24 10 54 0 30 -4 58 -10 61
-6 4 -10 -5 -10 -19 0 -22 -5 -26 -29 -26 -24 0 -30 5 -33 26 -2 14 -6 22 -10
18z"/>
<path d="M5604 14265 l1 -60 34 -3 c42 -4 51 9 50 73 l-2 50 -6 -45 c-8 -55
-17 -70 -41 -70 -20 0 -26 15 -33 80 -3 19 -4 8 -3 -25z"/>
<path d="M5794 14298 c-16 -18 -17 -21 -2 -15 14 5 18 -2 21 -41 3 -42 4 -40
5 16 1 34 0 62 -1 62 -2 0 -12 -10 -23 -22z"/>
<path d="M7496 14301 c-3 -5 2 -15 12 -22 16 -13 16 -13 2 5 -14 18 -13 19 17
14 18 -2 30 -1 27 4 -7 11 -51 10 -58 -1z"/>
<path d="M7537 14259 c7 -9 10 -19 6 -22 -3 -4 -1 -7 5 -7 17 0 15 16 -5 31
-16 12 -17 12 -6 -2z"/>
<path d="M5710 14240 c0 -5 9 -10 20 -10 11 0 20 5 20 10 0 6 -9 10 -20 10
-11 0 -20 -4 -20 -10z"/>
<path d="M7508 14243 c7 -3 16 -2 19 1 4 3 -2 6 -13 5 -11 0 -14 -3 -6 -6z"/>
<path d="M2898 13798 l-3 -243 -27 -3 -26 -3 40 -70 c22 -39 43 -68 46 -65 2
3 22 34 43 68 37 62 37 63 14 66 -31 4 -35 34 -35 285 l0 207 -25 0 -25 0 -2
-242z"/>
<path d="M1681 13794 c0 -11 3 -14 6 -6 3 7 2 16 -1 19 -3 4 -6 -2 -5 -13z"/>
<path d="M2183 13793 c0 -7 6 -13 14 -13 7 0 13 6 13 13 0 8 -6 14 -13 14 -8
0 -14 -6 -14 -14z"/>
<path d="M2703 13795 c0 -8 4 -15 9 -15 4 0 8 4 8 9 0 6 -4 12 -8 15 -5 3 -9
-1 -9 -9z"/>
<path d="M4191 13794 c0 -11 3 -14 6 -6 3 7 2 16 -1 19 -3 4 -6 -2 -5 -13z"/>
<path d="M3678 13783 c7 -3 16 -2 19 1 4 3 -2 6 -13 5 -11 0 -14 -3 -6 -6z"/>
<path d="M1057 13734 c-4 -4 -7 -67 -7 -141 l0 -133 140 0 141 0 -3 138 -3
137 -131 3 c-71 1 -133 -1 -137 -4z"/>
<path d="M4710 13600 l0 -140 140 0 c120 0 139 2 134 15 -5 12 -24 15 -85 15
-43 0 -79 3 -79 8 0 4 36 6 79 4 93 -4 87 -14 83 134 l-3 104 -68 0 c-39 0
-72 -5 -79 -12 -9 -9 -12 -9 -12 0 0 8 -19 12 -55 12 l-55 0 0 -140z"/>
<path d="M6460 13621 l0 -121 55 0 56 0 -3 118 -3 117 -52 3 -53 3 0 -120z"/>
<path d="M6460 13475 c0 -12 13 -15 55 -15 42 0 55 3 55 15 0 12 -13 15 -55
15 -42 0 -55 -3 -55 -15z"/>
<path d="M6711 13388 c5 -18 9 -34 9 -34 0 -1 7 -4 15 -8 12 -4 11 3 -5 34
-25 48 -32 51 -19 8z"/>
<path d="M1131 13283 c-45 -24 -74 -77 -66 -122 13 -69 53 -101 126 -101 33 0
48 7 75 34 28 28 34 42 34 76 0 97 -88 155 -169 113z"/>
<path d="M6390 13270 c0 -5 4 -10 9 -10 5 0 18 -3 28 -6 16 -5 16 -4 -1 10
-23 18 -36 20 -36 6z"/>
<path d="M8350 13195 l0 -25 -245 0 -245 0 0 -35 0 -35 245 0 c238 0 245 -1
245 -20 0 -11 3 -20 7 -20 8 0 133 73 130 76 -1 1 -32 20 -69 43 l-68 41 0
-25z"/>
<path d="M6070 13186 l0 -26 -245 0 -245 0 0 -30 0 -30 243 -2 242 -3 3 -22
c2 -13 5 -23 7 -23 2 0 34 17 70 39 l67 38 -64 38 c-34 21 -66 40 -70 42 -5 2
-8 -7 -8 -21z"/>
<path d="M7210 13185 l0 -25 -240 0 -240 0 0 -30 0 -30 128 -1 c70 0 178 0
240 0 l112 1 0 -25 c0 -14 2 -25 5 -25 8 0 78 36 116 59 l30 18 -70 42 c-38
22 -72 41 -75 41 -3 0 -6 -11 -6 -25z"/>
<path d="M3820 13176 l0 -26 -240 0 -240 0 0 -35 0 -35 239 0 240 0 3 -24 3
-25 72 41 72 42 -27 16 c-15 9 -48 29 -74 44 l-48 28 0 -26z"/>
<path d="M4970 13176 l0 -26 -242 -2 -243 -3 0 -30 0 -30 242 -3 242 -2 3 -25
3 -24 72 41 72 42 -27 16 c-15 9 -48 29 -74 44 l-48 28 0 -26z"/>
<path d="M6110 12944 c0 -10 -3 -29 -6 -41 -5 -17 -2 -23 9 -23 13 0 15 8 10
38 -7 42 -13 55 -13 26z"/>
<path d="M4528 12822 c-2 -18 -1 -35 4 -38 17 -11 21 5 11 38 l-9 33 -6 -33z"/>
<path d="M4020 12563 c0 -22 2 -25 10 -13 13 20 13 40 0 40 -5 0 -10 -12 -10
-27z"/>
<path d="M4061 12583 c0 -5 4 -17 9 -28 8 -18 9 -17 9 8 1 15 -3 27 -9 27 -5
0 -10 -3 -9 -7z"/>
<path d="M4096 12574 c-8 -21 -8 -21 14 -27 11 -3 20 -1 20 4 0 5 -8 9 -17 10
-11 0 -13 3 -5 6 14 5 16 23 3 23 -5 0 -12 -7 -15 -16z"/>
<path d="M4141 12563 c1 -18 3 -21 6 -10 3 10 9 14 16 10 7 -4 6 1 -2 10 -18
23 -21 22 -20 -10z"/>
<path d="M4178 12565 c-3 -14 -1 -25 3 -25 5 0 9 11 9 25 0 14 -2 25 -4 25 -2
0 -6 -11 -8 -25z"/>
<path d="M4210 12579 c0 -5 5 -7 10 -4 6 3 10 8 10 11 0 2 -4 4 -10 4 -5 0
-10 -5 -10 -11z"/>
<path d="M4253 12574 c-3 -8 2 -23 11 -32 15 -15 17 -15 34 3 15 17 15 18 0 6
-22 -16 -41 -5 -35 20 6 23 -1 25 -10 3z"/>
<path d="M4371 12565 c-1 -22 2 -26 8 -16 7 11 13 12 24 3 11 -9 13 -8 12 8
-1 11 -5 23 -10 27 -4 5 -5 2 -1 -4 4 -8 1 -13 -8 -13 -8 0 -17 6 -19 13 -3 6
-6 -1 -6 -18z"/>
<path d="M4218 12563 c-10 -2 -18 -8 -18 -13 0 -4 9 -6 20 -3 11 3 20 9 20 14
0 5 -1 8 -2 8 -2 -1 -11 -3 -20 -6z"/>
<path d="M4328 12563 c7 -3 16 -2 19 1 4 3 -2 6 -13 5 -11 0 -14 -3 -6 -6z"/>
<path d="M4040 12550 c0 -5 5 -10 10 -10 6 0 10 5 10 10 0 6 -4 10 -10 10 -5
0 -10 -4 -10 -10z"/>
<path d="M4452 12492 c13 -5 15 -11 8 -22 -5 -8 -10 -22 -9 -30 0 -8 6 0 14
19 19 42 19 41 -7 40 -19 0 -20 -2 -6 -7z"/>
<path d="M4554 12486 c-7 -19 3 -36 22 -36 8 0 12 -5 9 -10 -4 -6 -11 -7 -17
-4 -7 4 -8 2 -4 -4 14 -22 37 0 34 32 -3 34 -34 49 -44 22z m36 -12 c0 -9 -5
-14 -12 -12 -18 6 -21 28 -4 28 9 0 16 -7 16 -16z"/>
<path d="M4101 12465 c-1 -22 2 -26 8 -16 7 11 13 12 23 4 10 -9 13 -6 14 15
1 15 -1 21 -3 15 -3 -7 -11 -13 -18 -13 -7 0 -16 6 -18 13 -3 6 -6 -1 -6 -18z"/>
<path d="M4167 12483 c-13 -12 -7 -41 9 -47 14 -5 15 -4 4 9 -7 8 -10 22 -6
30 6 16 3 19 -7 8z"/>
<path d="M4195 12480 c3 -5 8 -10 11 -10 2 0 4 5 4 10 0 6 -5 10 -11 10 -5 0
-7 -4 -4 -10z"/>
<path d="M4266 12475 c4 -8 0 -23 -7 -33 -13 -15 -12 -16 4 -3 19 15 22 36 7
46 -6 3 -7 -1 -4 -10z"/>
<path d="M4290 12465 c1 -26 2 -28 11 -12 8 14 8 22 0 30 -8 8 -11 3 -11 -18z"/>
<path d="M4321 12463 c-10 -26 -10 -27 4 -9 8 11 15 23 15 28 0 15 -7 8 -19
-19z"/>
<path d="M5967 12459 c-44 -26 -60 -106 -30 -158 54 -94 160 -43 150 72 -7 77
-64 119 -120 86z"/>
<path d="M1170 12425 c0 -8 4 -15 8 -15 5 0 9 7 9 15 0 8 -4 15 -9 15 -4 0 -8
-7 -8 -15z"/>
<path d="M1681 12424 c0 -11 3 -14 6 -6 3 7 2 16 -1 19 -3 4 -6 -2 -5 -13z"/>
<path d="M2183 12423 c0 -7 6 -13 14 -13 7 0 13 6 13 13 0 8 -6 14 -13 14 -8
0 -14 -6 -14 -14z"/>
<path d="M2703 12425 c0 -8 4 -15 9 -15 4 0 8 7 8 15 0 8 -4 15 -8 15 -5 0 -9
-7 -9 -15z"/>
<path d="M6157 12388 c-21 -11 -13 -26 21 -39 19 -8 23 -12 13 -22 -9 -9 -16
-9 -32 2 -18 10 -20 10 -17 -1 6 -18 63 -17 63 1 0 11 -10 20 -44 38 -1 1 0 7
4 13 5 8 11 8 21 -1 8 -7 14 -7 14 -1 0 15 -24 21 -43 10z"/>
<path d="M6755 12380 c-15 -17 -16 -24 -7 -46 10 -20 18 -25 40 -22 22 2 28 9
30 33 3 19 -2 33 -14 42 -24 17 -28 17 -49 -7z m53 -29 c-4 -32 -33 -40 -47
-12 -8 15 -7 23 4 35 22 22 47 9 43 -23z"/>
<path d="M6855 12386 c-11 -8 -16 -22 -13 -41 2 -24 8 -31 30 -33 19 -2 30 3
38 17 20 39 -21 82 -55 57z m43 -35 c-4 -35 -41 -37 -46 -2 -4 26 13 42 35 34
8 -3 13 -16 11 -32z"/>
<path d="M6220 12350 c0 -39 1 -40 33 -39 30 2 30 2 5 6 -16 2 -28 10 -28 18
0 8 12 16 28 18 l27 4 -27 2 c-16 0 -28 5 -28 10 0 5 12 12 28 14 25 4 25 4
-5 6 -32 1 -33 0 -33 -39z"/>
<path d="M6301 12348 c1 -24 4 -33 6 -20 2 12 10 22 17 22 8 0 21 -10 29 -22
9 -13 16 -18 16 -11 1 6 -4 15 -9 18 -8 5 -7 11 0 20 13 16 5 35 -13 34 -9 0
-9 -2 1 -6 21 -8 13 -23 -14 -23 -19 0 -25 4 -20 15 3 8 1 15 -4 15 -6 0 -9
-19 -9 -42z"/>
<path d="M6392 12358 c17 -52 26 -55 43 -14 9 21 14 40 12 43 -3 2 -10 -11
-17 -29 l-12 -33 -14 33 c-8 17 -16 32 -19 32 -2 0 1 -15 7 -32z"/>
<path d="M6460 12350 c0 -40 0 -40 38 -39 30 2 32 3 10 6 -34 5 -37 30 -5 36
l22 4 -22 2 c-13 0 -23 5 -23 10 0 5 10 12 23 14 16 3 13 5 -10 6 -32 1 -33 0
-33 -39z"/>
<path d="M6540 12350 c0 -22 5 -40 10 -40 6 0 10 9 10 20 0 11 4 20 10 20 5 0
15 -9 22 -20 7 -11 17 -20 22 -20 5 0 1 9 -8 19 -11 12 -14 21 -7 26 18 10 13
35 -6 34 -11 0 -13 -3 -5 -6 19 -8 14 -23 -8 -23 -11 0 -20 7 -20 15 0 8 -4
15 -10 15 -5 0 -10 -18 -10 -40z"/>
<path d="M6661 12348 c1 -24 4 -33 6 -20 2 12 10 22 17 22 8 0 21 -10 29 -22
9 -13 16 -18 16 -11 1 6 -4 15 -9 18 -8 5 -7 11 0 20 13 16 5 35 -13 34 -9 0
-9 -2 1 -6 21 -8 13 -23 -14 -23 -19 0 -25 4 -20 15 3 8 1 15 -4 15 -6 0 -9
-19 -9 -42z"/>
<path d="M6931 12348 l2 -43 6 35 7 35 8 -32 c9 -40 23 -42 33 -5 l7 27 7 -30
c6 -27 7 -26 8 13 1 50 -12 55 -26 10 l-10 -33 -13 33 c-17 45 -30 40 -29 -10z"/>
<path d="M3002 12281 c-40 -71 -40 -71 -16 -71 l24 0 0 -220 0 -220 -24 0
c-25 0 -25 0 16 -71 22 -38 43 -68 46 -65 2 3 22 34 43 68 l38 63 -25 3 -24 3
0 219 0 219 25 3 25 3 -43 68 -44 68 -41 -70z"/>
<path d="M5965 12190 c-3 -5 -2 -10 4 -10 5 0 12 -12 14 -27 3 -23 4 -21 6 10
1 35 -11 49 -24 27z"/>
<path d="M6019 12198 c-1 -2 -3 -16 -5 -33 -3 -31 10 -47 32 -38 19 7 11 67
-10 71 -9 2 -17 2 -17 0z m31 -12 c0 -11 -19 -15 -25 -6 -3 5 1 10 9 10 9 0
16 -2 16 -4z m-2 -37 c-2 -6 -8 -10 -13 -10 -5 0 -11 4 -13 10 -2 6 4 11 13
11 9 0 15 -5 13 -11z"/>
<path d="M6147 12193 c-2 -5 0 -21 4 -38 7 -29 7 -29 8 8 1 35 -3 46 -12 30z"/>
<path d="M6190 12190 c0 -5 7 -7 15 -4 11 5 15 -1 15 -25 0 -36 -12 -40 -28
-8 -6 12 -11 17 -11 11 -2 -18 26 -47 37 -40 7 4 12 23 12 42 0 27 -4 34 -20
34 -11 0 -20 -4 -20 -10z"/>
<path d="M6255 12190 c3 -5 8 -10 11 -10 2 0 4 5 4 10 0 6 -5 10 -11 10 -5 0
-7 -4 -4 -10z"/>
<path d="M4005 12160 c-3 -5 0 -7 8 -4 8 3 18 1 22 -5 3 -6 1 -11 -6 -11 -10
0 -10 -3 -1 -12 19 -19 14 -31 -9 -25 -16 4 -19 3 -11 -5 17 -17 43 -1 40 24
-6 41 -29 61 -43 38z"/>
<path d="M4061 12154 c0 -11 3 -14 6 -6 3 7 2 16 -1 19 -3 4 -6 -2 -5 -13z"/>
<path d="M3955 12150 c-3 -5 -2 -10 4 -10 5 0 12 -12 14 -27 3 -23 4 -21 6 10
1 35 -11 49 -24 27z"/>
<path d="M6098 12153 c7 -3 16 -2 19 1 4 3 -2 6 -13 5 -11 0 -14 -3 -6 -6z"/>
<path d="M3365 12130 c3 -5 17 -10 31 -10 13 0 24 5 24 10 0 6 -14 10 -31 10
-17 0 -28 -4 -24 -10z"/>
<path d="M4529 12098 c4 -38 5 -40 12 -18 11 39 10 60 -4 60 -9 0 -11 -12 -8
-42z"/>
<path d="M4595 12130 c3 -5 17 -10 30 -10 13 0 27 5 30 10 4 6 -8 10 -30 10
-22 0 -34 -4 -30 -10z"/>
<path d="M3955 12020 c-3 -5 -2 -10 4 -10 5 0 12 -12 14 -27 3 -23 4 -21 6 10
1 35 -11 49 -24 27z"/>
<path d="M4000 12019 c0 -5 5 -7 10 -4 6 3 10 8 10 11 0 2 -4 4 -10 4 -5 0
-10 -5 -10 -11z"/>
<path d="M4035 12023 c3 -3 0 -12 -6 -20 -9 -10 -8 -13 1 -13 7 0 10 -7 6 -16
-3 -8 -2 -12 3 -9 10 6 8 52 -2 60 -4 3 -5 2 -2 -2z"/>
<path d="M4718 12013 c7 -3 16 -2 19 1 4 3 -2 6 -13 5 -11 0 -14 -3 -6 -6z"/>
<path d="M3370 12000 c-19 -4 -26 -8 -15 -9 11 -1 30 -4 43 -7 16 -5 22 -2 22
10 0 9 -3 15 -7 15 -5 -1 -24 -5 -43 -9z"/>
<path d="M4595 12001 c-9 -16 15 -21 55 -12 31 8 32 9 8 10 -14 1 -33 4 -41 7
-8 3 -18 1 -22 -5z"/>
<path d="M1529 11853 c-8 -10 -9 -14 -2 -10 8 5 13 -3 16 -25 3 -29 4 -28 5
10 2 47 0 49 -19 25z"/>
<path d="M1587 11863 c-4 -3 -7 -14 -7 -24 0 -12 6 -16 20 -12 13 4 20 0 20
-9 0 -22 -12 -29 -27 -17 -8 8 -13 8 -13 1 0 -6 6 -12 13 -15 38 -13 53 38 15
52 l-23 9 25 10 c22 10 23 11 4 11 -11 1 -24 -2 -27 -6z"/>
<path d="M1686 11835 c3 -22 8 -42 10 -45 8 -7 24 23 25 45 0 14 5 10 16 -15
l16 -35 13 30 c7 17 13 37 13 45 0 8 -7 -1 -14 -20 l-13 -35 -7 33 c-4 17 -11
32 -16 32 -5 0 -12 -15 -17 -32 l-9 -33 -11 35 -12 35 6 -40z"/>
<path d="M1837 11863 c-15 -14 -6 -33 18 -39 26 -6 32 -18 15 -29 -6 -4 -18
-1 -26 6 -8 6 -17 9 -20 6 -3 -3 4 -11 16 -17 16 -9 25 -9 36 1 20 17 17 28
-11 41 -33 15 -32 32 1 24 17 -5 23 -3 19 4 -7 11 -38 14 -48 3z"/>
<path d="M1796 11834 c-4 -14 -5 -28 -3 -31 3 -2 8 8 11 23 4 14 5 28 3 31 -3
2 -8 -8 -11 -23z"/>
<path d="M4020 11673 c0 -22 2 -25 10 -13 13 20 13 40 0 40 -5 0 -10 -12 -10
-27z"/>
<path d="M4061 11693 c0 -5 4 -17 9 -28 8 -18 9 -17 9 8 1 15 -3 27 -9 27 -5
0 -10 -3 -9 -7z"/>
<path d="M4096 11684 c-8 -21 -8 -21 14 -27 11 -3 20 -1 20 4 0 5 -8 9 -17 10
-11 0 -13 3 -5 6 14 5 16 23 3 23 -5 0 -12 -7 -15 -16z"/>
<path d="M4141 11673 c1 -18 3 -21 6 -10 3 10 9 14 16 10 7 -4 6 1 -2 10 -18
23 -21 22 -20 -10z"/>
<path d="M4178 11675 c-3 -14 -1 -25 3 -25 5 0 9 11 9 25 0 14 -2 25 -4 25 -2
0 -6 -11 -8 -25z"/>
<path d="M4210 11689 c0 -5 5 -7 10 -4 6 3 10 8 10 11 0 2 -4 4 -10 4 -5 0
-10 -5 -10 -11z"/>
<path d="M4253 11684 c-3 -8 2 -23 11 -32 15 -15 17 -15 34 3 15 17 15 18 0 6
-22 -16 -41 -5 -35 20 6 23 -1 25 -10 3z"/>
<path d="M4371 11675 c-1 -22 2 -26 8 -16 7 11 13 12 24 3 11 -9 13 -8 12 8
-1 11 -5 23 -10 27 -4 5 -5 2 -1 -4 4 -8 1 -13 -8 -13 -8 0 -17 6 -19 13 -3 6
-6 -1 -6 -18z"/>
<path d="M4218 11673 c-10 -2 -18 -8 -18 -13 0 -4 9 -6 20 -3 11 3 20 9 20 14
0 5 -1 8 -2 8 -2 -1 -11 -3 -20 -6z"/>
<path d="M4328 11673 c7 -3 16 -2 19 1 4 3 -2 6 -13 5 -11 0 -14 -3 -6 -6z"/>
<path d="M4040 11660 c0 -5 5 -10 10 -10 6 0 10 5 10 10 0 6 -4 10 -10 10 -5
0 -10 -4 -10 -10z"/>
<path d="M4107 11603 c-4 -3 -7 -18 -7 -32 0 -20 3 -22 9 -12 7 11 13 12 23 4
10 -9 13 -6 14 15 1 15 -1 21 -3 15 -5 -15 -33 -18 -33 -4 0 5 6 12 13 14 6 3
7 6 1 6 -6 1 -14 -2 -17 -6z"/>
<path d="M4236 11602 c-3 -6 2 -9 12 -8 12 1 17 -6 16 -22 0 -16 2 -20 10 -12
7 7 7 16 0 27 -13 21 -30 27 -38 15z"/>
<path d="M4291 11580 c0 -29 1 -32 10 -17 7 11 7 23 0 35 -9 14 -10 11 -10
-18z"/>
<path d="M4160 11581 c0 -11 4 -22 9 -25 4 -3 6 6 3 19 -5 30 -12 33 -12 6z"/>
<path d="M4321 11573 c-10 -26 -10 -27 4 -9 8 11 15 23 15 28 0 15 -7 8 -19
-19z"/>
<path d="M4195 11560 c-3 -5 -1 -10 4 -10 6 0 11 5 11 10 0 6 -2 10 -4 10 -3
0 -8 -4 -11 -10z"/>
<path d="M4718 11493 c7 -3 16 -2 19 1 4 3 -2 6 -13 5 -11 0 -14 -3 -6 -6z"/>
<path d="M1682 11260 c0 -14 2 -19 5 -12 2 6 2 18 0 25 -3 6 -5 1 -5 -13z"/>
<path d="M2193 11262 c-9 -15 -8 -19 3 -19 8 0 14 9 14 19 0 10 -1 18 -3 18
-1 0 -7 -8 -14 -18z"/>
<path d="M1170 11255 c0 -8 4 -15 8 -15 5 0 9 7 9 15 0 8 -4 15 -9 15 -4 0 -8
-7 -8 -15z"/>
<path d="M5923 11135 c0 -49 2 -71 4 -47 4 41 5 42 39 42 19 0 34 5 34 11 0 7
-12 9 -34 5 l-35 -7 -4 43 c-2 24 -4 3 -4 -47z"/>
<path d="M3403 11203 c43 -2 110 -2 150 0 40 1 5 3 -78 3 -82 0 -115 -2 -72
-3z"/>
<path d="M4494 11203 c37 -4 38 -5 34 -39 -3 -24 0 -34 10 -34 11 0 13 8 8 34
l-7 35 58 4 c32 2 13 3 -42 3 -55 1 -83 -1 -61 -3z"/>
<path d="M6379 11163 c-8 -10 -9 -14 -2 -10 8 5 13 -3 16 -25 3 -29 4 -28 5
10 2 47 0 49 -19 25z"/>
<path d="M6439 11163 c-8 -10 -9 -14 -2 -10 8 5 13 -3 16 -25 3 -29 4 -28 5
10 2 47 0 49 -19 25z"/>
<path d="M6481 11164 c0 -11 3 -14 6 -6 3 7 2 16 -1 19 -3 4 -6 -2 -5 -13z"/>
<path d="M6545 11170 c-3 -5 0 -7 8 -4 8 3 18 1 22 -5 3 -6 1 -11 -6 -11 -10
0 -10 -3 -1 -12 19 -19 14 -31 -9 -25 -16 4 -19 3 -11 -5 17 -17 43 -1 40 24
-6 41 -29 61 -43 38z"/>
<path d="M6601 11164 c0 -11 3 -14 6 -6 3 7 2 16 -1 19 -3 4 -6 -2 -5 -13z"/>
<path d="M6621 11164 c0 -11 3 -14 6 -6 3 7 2 16 -1 19 -3 4 -6 -2 -5 -13z"/>
<path d="M7000 11140 c0 -5 19 -10 43 -9 36 1 38 2 17 9 -36 12 -60 12 -60 0z"/>
<path d="M6508 11123 c7 -3 16 -2 19 1 4 3 -2 6 -13 5 -11 0 -14 -3 -6 -6z"/>
<path d="M6101 11093 c1 -10 5 -31 9 -48 7 -28 8 -28 9 -5 1 14 4 35 7 48 5
16 2 22 -10 22 -9 0 -15 -8 -15 -17z"/>
<path d="M3431 10986 c-16 -19 -7 -62 14 -70 19 -7 45 3 45 17 0 7 -4 7 -12
-1 -7 -7 -15 -12 -20 -12 -13 0 -28 38 -22 54 7 18 40 22 47 6 3 -6 4 -5 3 2
-4 19 -41 21 -55 4z"/>
<path d="M3517 10993 c-15 -14 -7 -63 12 -73 27 -14 28 -13 46 14 13 19 14 29
5 45 -10 20 -49 29 -63 14z m51 -32 c4 -29 -9 -44 -31 -35 -17 6 -23 44 -10
58 14 14 38 0 41 -23z"/>
<path d="M3601 10958 c1 -39 2 -40 8 -13 l7 30 18 -27 c26 -39 36 -35 35 15
l-2 42 -6 -35 -6 -35 -20 33 c-26 43 -35 40 -34 -10z"/>
<path d="M3691 10958 c1 -24 3 -35 6 -26 2 9 14 19 26 21 l22 4 -22 2 c-13 0
-23 7 -23 15 0 8 10 17 23 19 19 4 18 4 -5 6 -27 1 -28 -1 -27 -41z"/>
<path d="M3760 10960 c0 -22 4 -40 10 -40 5 0 7 6 4 14 -4 9 3 16 18 19 l23 4
-22 2 c-33 2 -29 29 5 34 25 4 25 4 -5 6 -32 1 -33 0 -33 -39z"/>
<path d="M3841 10953 c1 -27 4 -38 6 -25 2 12 9 22 15 22 5 0 19 -10 29 -22
l20 -23 -11 23 c-8 16 -8 27 -1 36 14 17 -5 36 -36 36 -21 0 -23 -4 -22 -47z
m47 25 c-7 -19 -38 -22 -38 -4 0 10 9 16 21 16 12 0 19 -5 17 -12z"/>
<path d="M3920 10955 l0 -45 38 1 37 1 -32 10 c-40 13 -43 28 -5 29 27 1 27 1
3 8 -35 9 -37 29 -4 34 27 4 27 4 -4 6 -33 1 -33 0 -33 -44z"/>
<path d="M4000 10955 c0 -25 4 -45 8 -45 5 0 7 15 5 33 l-4 32 30 -35 30 -35
-1 50 c-1 45 -1 47 -7 15 l-6 -35 -20 33 c-26 44 -35 40 -35 -13z"/>
<path d="M4091 10982 c-22 -42 21 -90 55 -61 8 6 12 14 9 17 -2 3 -12 -1 -20
-8 -21 -17 -38 -1 -33 31 2 17 9 24 25 23 12 0 20 3 17 8 -9 15 -43 8 -53 -10z"/>
<path d="M4170 10960 c0 -22 4 -40 10 -40 5 0 7 7 4 15 -5 11 1 15 22 16 28 1
28 1 5 8 -35 9 -37 29 -4 34 27 4 27 4 -4 6 -32 1 -33 0 -33 -39z"/>
<path d="M4280 10960 c0 -22 5 -40 10 -40 6 0 10 7 10 15 0 19 9 19 32 -2 10
-9 18 -11 18 -5 0 6 -5 14 -11 18 -8 5 -7 9 1 14 22 14 3 40 -30 40 -28 0 -30
-2 -30 -40z m58 18 c-7 -19 -38 -22 -38 -4 0 10 9 16 21 16 12 0 19 -5 17 -12z"/>
<path d="M4377 10993 c-15 -14 -7 -63 12 -73 27 -14 28 -13 46 14 13 19 14 29
5 45 -10 20 -49 29 -63 14z m51 -32 c4 -29 -9 -44 -31 -35 -17 6 -23 44 -10
58 14 14 38 0 41 -23z"/>
<path d="M4472 10988 c-18 -18 -14 -56 7 -68 26 -14 50 -3 57 26 11 42 -34 72
-64 42z m53 -19 c10 -30 -18 -57 -39 -39 -16 13 -21 42 -9 53 14 14 42 6 48
-14z"/>
<path d="M4551 10958 c1 -39 2 -41 9 -13 l7 30 11 -28 c12 -29 31 -29 33 1 1
11 4 8 9 -8 7 -21 8 -18 9 18 1 49 -14 48 -25 -1 l-7 -32 -12 34 c-17 52 -35
51 -34 -1z"/>
<path d="M5895 10990 c-3 -5 1 -10 9 -10 9 0 16 5 16 10 0 6 -4 10 -9 10 -6 0
-13 -4 -16 -10z"/>
<path d="M3002 10847 l-41 -72 25 -3 24 -3 0 -215 0 -214 -25 0 -25 0 27 -48
c16 -27 35 -59 44 -72 l16 -24 41 70 42 69 -25 3 -25 3 0 215 0 214 25 0 c14
0 25 2 25 5 0 3 -19 36 -43 74 l-44 70 -41 -72z"/>
<path d="M3723 10853 c15 -2 37 -2 50 0 12 2 0 4 -28 4 -27 0 -38 -2 -22 -4z"/>
<path d="M4233 10853 c15 -2 37 -2 50 0 12 2 0 4 -28 4 -27 0 -38 -2 -22 -4z"/>
<path d="M5453 10553 c-22 -8 -14 -33 12 -43 14 -5 25 -15 25 -21 0 -7 -10 -9
-25 -7 -14 3 -25 1 -25 -4 0 -5 12 -8 27 -6 37 4 43 35 9 44 -14 3 -26 9 -26
13 0 16 13 20 31 10 11 -5 19 -7 19 -5 0 10 -35 23 -47 19z"/>
<path d="M5140 10540 c-9 -6 -10 -10 -3 -10 6 0 14 -15 16 -32 3 -29 4 -27 5
10 1 23 1 42 0 42 -2 0 -10 -5 -18 -10z"/>
<path d="M5203 10543 c13 -3 16 -10 12 -21 -11 -27 -18 -57 -13 -52 3 3 13 22
21 43 l16 37 -27 -1 c-18 -1 -21 -3 -9 -6z"/>
<path d="M5290 10538 c0 -20 19 -72 25 -67 2 3 -2 23 -10 44 -8 22 -14 32 -15
23z"/>
<path d="M5325 10529 c-4 -11 -4 -23 -1 -26 3 -4 6 1 6 11 0 9 5 14 10 11 6
-3 10 -15 10 -25 0 -35 19 -31 29 7 6 20 9 39 6 41 -2 2 -8 -11 -13 -29 l-9
-34 -7 33 c-9 37 -22 42 -31 11z"/>
<path d="M5411 10534 c0 -11 3 -14 6 -6 3 7 2 16 -1 19 -3 4 -6 -2 -5 -13z"/>
<path d="M5397 10491 c-4 -17 -3 -21 5 -13 5 5 8 16 6 23 -3 8 -7 3 -11 -10z"/>
<path d="M5898 10483 c6 -2 18 -2 25 0 6 3 1 5 -13 5 -14 0 -19 -2 -12 -5z"/>
<path d="M7058 10483 c7 -3 16 -2 19 1 4 3 -2 6 -13 5 -11 0 -14 -3 -6 -6z"/>
<path d="M4485 10360 c-3 -5 -2 -10 4 -10 5 0 12 -12 14 -27 3 -23 4 -21 6 10
1 35 -11 49 -24 27z"/>
<path d="M4542 10363 c14 -3 15 -9 7 -30 -15 -39 -5 -37 14 2 l17 35 -28 -1
c-16 -1 -20 -3 -10 -6z"/>
<path d="M4702 10173 l3 -138 138 -3 137 -3 0 141 0 140 -140 0 -141 0 3 -137z"/>
<path d="M1681 10084 c0 -11 3 -14 6 -6 3 7 2 16 -1 19 -3 4 -6 -2 -5 -13z"/>
<path d="M2201 10084 c0 -11 3 -14 6 -6 3 7 2 16 -1 19 -3 4 -6 -2 -5 -13z"/>
<path d="M1050 9940 l0 -140 140 0 140 0 0 140 0 140 -140 0 -140 0 0 -140z"/>
<path d="M2490 10025 l0 -55 140 0 140 0 0 55 0 55 -140 0 -140 0 0 -55z"/>
<path d="M7050 9985 c0 -2 7 -8 15 -15 12 -10 15 -10 15 2 0 8 -7 15 -15 15
-8 0 -15 -1 -15 -2z"/>
<path d="M4005 9650 c-3 -5 0 -7 8 -4 8 3 18 1 22 -5 3 -6 1 -11 -6 -11 -10 0
-10 -3 -1 -12 19 -19 14 -31 -9 -25 -16 4 -19 3 -11 -5 17 -17 43 -1 40 24 -6
41 -29 61 -43 38z"/>
<path d="M4061 9644 c0 -11 3 -14 6 -6 3 7 2 16 -1 19 -3 4 -6 -2 -5 -13z"/>
<path d="M3955 9640 c-3 -5 -2 -10 4 -10 5 0 12 -12 14 -27 3 -23 4 -21 6 10
1 35 -11 49 -24 27z"/>
<path d="M3355 9621 c-16 -7 -11 -9 23 -12 29 -3 42 -1 42 8 0 14 -34 16 -65
4z"/>
<path d="M4597 9624 c-14 -14 3 -19 45 -15 37 4 40 5 18 12 -33 9 -55 10 -63
3z"/>
<path d="M3680 9585 c0 -3 9 -22 20 -42 19 -37 26 -30 14 14 -5 18 -34 42 -34
28z"/>
<path d="M4528 9506 c4 -34 3 -35 -34 -39 -22 -2 6 -4 61 -3 55 0 74 1 42 3
l-58 4 7 35 c5 26 3 34 -8 34 -10 0 -13 -10 -10 -34z"/>
<path d="M3403 9463 c43 -2 110 -2 150 0 40 1 5 3 -78 3 -82 0 -115 -2 -72 -3z"/>
<path d="M4753 9463 c31 -2 83 -2 115 0 31 2 5 3 -58 3 -63 0 -89 -1 -57 -3z"/>
<path d="M5044 9463 l38 -4 -6 -40 c-5 -30 -3 -39 8 -39 10 0 13 13 12 45 l-1
45 -45 -2 -45 -1 39 -4z"/>
<path d="M5253 9463 c43 -2 110 -2 150 0 40 1 5 3 -78 3 -82 0 -115 -2 -72 -3z"/>
<path d="M6883 9463 c37 -2 97 -2 135 0 37 2 6 3 -68 3 -74 0 -105 -1 -67 -3z"/>
<path d="M1080 9265 c0 -117 4 -185 10 -185 6 0 10 68 10 185 0 117 -4 185
-10 185 -6 0 -10 -68 -10 -185z"/>
<path d="M6897 9433 c-11 -10 -8 -53 3 -53 6 0 10 14 10 30 0 31 -2 35 -13 23z"/>
<path d="M4210 9400 c-9 -6 -10 -10 -3 -10 6 0 14 -12 16 -27 3 -23 4 -21 6
10 0 20 0 37 -1 37 -2 0 -10 -5 -18 -10z"/>
<path d="M4261 9378 c-1 -32 2 -38 19 -38 17 0 20 6 19 38 -1 20 -3 29 -6 20
-2 -10 -8 -18 -13 -18 -5 0 -11 8 -13 18 -3 9 -5 0 -6 -20z m29 -18 c0 -5 -4
-10 -10 -10 -5 0 -10 5 -10 10 0 6 5 10 10 10 6 0 10 -4 10 -10z"/>
<path d="M3365 9381 l-30 -7 39 -8 c21 -4 40 -5 43 -2 6 6 -6 26 -15 25 -4 -1
-20 -4 -37 -8z"/>
<path d="M5110 9376 c0 -17 11 -19 50 -6 23 7 23 8 3 9 -12 1 -28 4 -37 7 -11
4 -16 1 -16 -10z"/>
<path d="M5238 9367 c24 -7 36 -7 44 1 9 9 1 12 -32 11 l-45 -1 33 -11z"/>
<path d="M6077 9363 c-2 -5 -4 -21 -5 -36 -1 -21 3 -30 17 -34 14 -4 21 -16
24 -42 3 -20 4 -7 4 29 0 61 -9 90 -28 90 -4 0 -10 -3 -12 -7z m28 -13 c3 -5
-1 -10 -10 -10 -9 0 -13 5 -10 10 3 6 8 10 10 10 2 0 7 -4 10 -10z m5 -41 c0
-5 -7 -9 -15 -9 -15 0 -20 12 -9 23 8 8 24 -1 24 -14z"/>
<path d="M6131 9354 c0 -11 3 -14 6 -6 3 7 2 16 -1 19 -3 4 -6 -2 -5 -13z"/>
<path d="M6255 9361 c-3 -5 -1 -12 5 -16 5 -3 10 1 10 9 0 18 -6 21 -15 7z"/>
<path d="M1664 9349 c-6 -8 -16 -27 -22 -44 -5 -16 -13 -38 -17 -47 -4 -11 -3
-18 4 -18 6 0 11 7 11 15 0 21 50 19 66 -2 21 -28 16 4 -9 61 -18 39 -25 46
-33 35z m19 -39 c4 -15 0 -20 -14 -20 -17 0 -18 3 -9 20 6 11 12 20 14 20 2 0
6 -9 9 -20z"/>
<path d="M1793 9300 c0 -36 2 -53 4 -37 4 23 9 27 38 27 29 0 34 -4 38 -27 2
-16 4 1 4 37 0 36 -2 53 -4 38 -4 -24 -9 -28 -38 -28 -29 0 -34 4 -38 28 -2
15 -4 -2 -4 -38z"/>
<path d="M2028 9308 c-3 -49 -5 -53 -28 -53 -23 0 -25 4 -28 48 -4 54 -22 64
-22 11 0 -51 15 -74 50 -74 35 0 50 23 50 74 0 57 -19 52 -22 -6z"/>
<path d="M2168 9355 c-3 -4 -4 -22 -1 -41 4 -27 2 -34 -11 -34 -18 0 -22 15
-6 25 6 3 10 12 10 18 0 13 -39 -32 -40 -45 0 -5 9 -8 20 -8 10 0 23 -7 27
-15 7 -12 10 -11 21 5 7 11 8 20 3 20 -6 0 -11 18 -13 41 -2 22 -6 38 -10 34z"/>
<path d="M3782 9344 c-25 -17 -29 -56 -7 -74 25 -21 92 -24 120 -6 53 35 18
96 -55 96 -20 0 -46 -7 -58 -16z"/>
<path d="M6025 9350 c-3 -5 -1 -10 6 -10 11 0 9 -58 -3 -100 -3 -8 -3 -12 -1
-7 7 11 38 8 51 -5 17 -17 15 -3 -8 44 -11 23 -20 52 -20 65 0 24 -14 31 -25
13z m34 -99 c-15 -5 -22 6 -14 19 6 9 10 9 16 -1 5 -8 4 -15 -2 -18z"/>
<path d="M6200 9343 c-9 -11 -24 -23 -35 -26 -13 -3 -9 -5 12 -6 34 -1 36 -5
46 -71 3 -14 4 -2 5 25 0 28 -3 61 -7 75 l-7 24 -14 -21z"/>
<path d="M4518 9289 c-11 -6 -18 -22 -18 -39 0 -23 5 -31 24 -36 14 -3 30 -3
35 1 18 10 13 35 -6 34 -11 0 -13 -3 -5 -6 21 -8 13 -25 -10 -21 -16 2 -24 11
-26 29 -4 30 22 46 44 28 9 -7 14 -8 14 -1 0 5 -7 13 -16 16 -19 7 -15 8 -36
-5z"/>
<path d="M4725 9286 c-11 -8 -16 -22 -13 -41 2 -24 8 -31 30 -33 19 -2 30 3
38 17 20 39 -21 82 -55 57z m43 -35 c-4 -35 -41 -37 -46 -2 -4 26 13 42 35 34
8 -3 13 -16 11 -32z"/>
<path d="M4816 9287 c-38 -27 2 -95 42 -71 23 15 27 48 7 68 -20 19 -26 20
-49 3z m44 -12 c18 -22 3 -57 -23 -53 -25 3 -34 32 -17 53 16 19 24 19 40 0z"/>
<path d="M5623 9289 c-43 -12 -69 -50 -53 -78 15 -29 42 -41 95 -41 79 0 121
39 91 85 -13 19 -74 48 -96 44 -3 0 -20 -5 -37 -10z"/>
<path d="M5872 9293 c11 -3 18 -17 21 -41 l4 -37 1 37 c1 25 7 38 20 41 9 3
-1 5 -23 5 -22 0 -32 -2 -23 -5z"/>
<path d="M5941 9258 c1 -24 3 -35 6 -25 5 21 31 23 39 2 4 -8 10 -15 15 -15 6
0 6 8 0 18 -7 13 -7 22 1 30 16 16 0 32 -33 32 -28 0 -29 -2 -28 -42z m47 20
c-7 -19 -38 -22 -38 -4 0 10 9 16 21 16 12 0 19 -5 17 -12z"/>
<path d="M6142 9260 c1 -32 2 -37 5 -16 l5 29 23 -29 24 -29 -1 45 c-1 32 -2
37 -5 16 l-5 -29 -23 29 -24 29 1 -45z"/>
<path d="M6251 9258 c2 -30 3 -35 6 -15 5 30 18 35 27 11 4 -9 9 -14 12 -11 7
7 -25 57 -37 57 -5 0 -8 -19 -8 -42z"/>
<path d="M6309 9265 c-6 -40 -4 -53 7 -43 3 3 4 23 2 44 l-3 39 -6 -40z"/>
<path d="M6344 9286 c-3 -8 -4 -25 -2 -38 2 -18 10 -24 36 -26 27 -3 32 0 32
17 0 14 -6 21 -17 20 -11 0 -13 -3 -5 -6 21 -8 13 -25 -10 -21 -17 2 -23 10
-23 28 0 21 5 25 27 25 14 -1 24 3 22 7 -9 14 -54 9 -60 -6z"/>
<path d="M6460 9260 c0 -22 5 -40 10 -40 6 0 10 16 10 35 0 28 4 35 20 35 23
0 27 -15 5 -24 -13 -5 -13 -8 2 -25 9 -11 19 -18 21 -16 3 3 -1 11 -8 20 -8
10 -9 15 -1 15 6 0 11 9 11 20 0 16 -7 20 -35 20 -34 0 -35 -1 -35 -40z"/>
<path d="M6554 9286 c-12 -32 0 -61 28 -64 34 -4 54 27 38 58 -12 23 -58 27
-66 6z m56 -26 c0 -23 -4 -30 -20 -30 -11 0 -23 7 -26 15 -9 23 3 45 26 45 16
0 20 -7 20 -30z"/>
<path d="M6644 9286 c-3 -9 -3 -28 0 -42 5 -20 12 -25 33 -22 34 4 52 31 37
56 -15 23 -62 28 -70 8z m60 -11 c8 -23 -4 -45 -25 -45 -22 0 -34 22 -25 45 3
8 14 15 25 15 10 0 21 -7 25 -15z"/>
<path d="M6731 9258 c1 -40 2 -41 9 -13 l7 30 11 -28 c12 -29 31 -29 33 1 1
10 4 7 8 -8 7 -22 8 -20 12 18 5 50 -6 55 -24 10 l-13 -33 -12 33 c-16 45 -32
40 -31 -10z"/>
<path d="M7010 9290 c0 -5 17 -10 38 -9 33 1 34 2 12 9 -36 11 -50 11 -50 0z"/>
<path d="M2070 9280 c0 -5 9 -10 20 -10 11 0 20 5 20 10 0 6 -9 10 -20 10 -11
0 -20 -4 -20 -10z"/>
<path d="M4033 9283 c12 -3 17 -16 19 -41 l1 -37 4 35 c3 19 10 38 16 42 7 4
-4 7 -23 7 -19 -1 -27 -3 -17 -6z"/>
<path d="M4101 9248 c1 -24 4 -33 6 -20 2 12 7 22 11 22 3 0 17 -10 30 -22 24
-22 24 -22 14 -2 -8 15 -8 24 0 32 5 5 7 15 4 21 -11 17 -26 13 -20 -4 4 -11
0 -15 -16 -15 -16 0 -20 4 -16 15 3 8 1 15 -4 15 -6 0 -9 -19 -9 -42z"/>
<path d="M4192 9257 c-18 -50 -13 -57 8 -12 13 28 19 34 20 20 1 -18 30 -68
30 -52 0 17 -30 77 -37 77 -5 0 -14 -15 -21 -33z"/>
<path d="M4273 9250 c0 -25 2 -35 4 -22 2 12 2 32 0 45 -2 12 -4 2 -4 -23z"/>
<path d="M4302 9250 c1 -32 2 -37 5 -16 l5 29 23 -29 24 -29 -1 45 c-1 32 -2
37 -5 16 l-5 -29 -23 29 -24 29 1 -45z"/>
<path d="M4383 9250 c0 -25 2 -35 4 -22 2 12 2 32 0 45 -2 12 -4 2 -4 -23z"/>
<path d="M4412 9248 c1 -41 1 -41 5 -8 l5 35 29 -35 28 -35 0 45 c-1 38 -2 41
-8 15 l-6 -29 -18 27 c-25 39 -37 33 -35 -15z"/>
<path d="M4620 9250 c0 -22 5 -40 10 -40 6 0 10 9 10 20 0 11 4 20 10 20 5 0
15 -9 22 -20 7 -11 17 -20 22 -20 5 0 1 9 -8 19 -11 12 -14 21 -7 26 18 10 13
35 -6 34 -11 0 -13 -3 -5 -6 19 -8 14 -23 -8 -23 -11 0 -20 7 -20 15 0 8 -4
15 -10 15 -5 0 -10 -18 -10 -40z"/>
<path d="M4891 9248 l2 -43 6 35 6 35 13 -35 c10 -28 15 -32 22 -20 5 8 10 20
10 25 0 6 -4 4 -9 -3 -6 -10 -11 -6 -19 17 -16 45 -32 38 -31 -11z"/>
<path d="M4956 9282 c-2 -4 -1 -23 4 -42 l8 -35 1 43 c1 41 -3 50 -13 34z"/>
<path d="M2380 9250 c11 -37 19 -50 31 -50 5 0 0 18 -11 40 -24 47 -32 51 -20
10z"/>
<path d="M5068 9233 c7 -3 16 -2 19 1 4 3 -2 6 -13 5 -11 0 -14 -3 -6 -6z"/>
<path d="M5050 9211 c0 -5 10 -7 22 -3 18 4 20 2 15 -18 -4 -16 -3 -20 5 -12
16 16 2 42 -22 42 -11 0 -20 -4 -20 -9z"/>
<path d="M3003 9043 l-41 -68 24 -3 24 -3 0 -215 0 -214 -26 0 -25 0 32 -57
c57 -102 50 -100 95 -26 51 86 50 83 20 83 l-26 0 0 215 0 215 26 0 25 0 -28
50 c-57 102 -54 101 -100 23z"/>
<path d="M6223 9103 c-22 -8 -14 -33 12 -43 14 -5 25 -14 25 -20 0 -13 -37
-13 -43 0 -3 6 -4 5 -3 -2 2 -7 14 -13 27 -13 33 0 34 39 2 43 -24 4 -30 16
-13 27 6 4 19 1 28 -7 15 -12 16 -11 3 5 -14 18 -18 19 -38 10z"/>
<path d="M4283 9093 c-7 -2 -13 -9 -13 -14 0 -6 4 -8 9 -4 5 3 12 -9 14 -27 3
-29 4 -28 5 10 1 23 1 42 0 41 -2 0 -9 -3 -15 -6z"/>
<path d="M4332 9060 c-1 -37 2 -41 21 -38 18 2 22 10 22 38 0 28 -4 36 -21 38
-19 3 -22 -2 -22 -38z m33 20 c-3 -5 -10 -10 -16 -10 -5 0 -9 5 -9 10 0 6 7
10 16 10 8 0 12 -4 9 -10z m3 -38 c2 -7 -3 -12 -12 -12 -9 0 -16 7 -16 16 0
17 22 14 28 -4z"/>
<path d="M4426 9073 c13 -55 21 -60 37 -23 l14 35 7 -32 c10 -44 20 -41 33 7
5 22 6 40 2 40 -5 0 -9 -9 -9 -19 0 -30 -17 -34 -24 -6 -9 35 -22 31 -31 -7
l-7 -33 -9 33 c-12 39 -22 43 -13 5z"/>
<path d="M4577 9093 c-13 -12 -7 -24 18 -33 33 -12 33 -34 0 -28 -13 3 -22 1
-19 -3 3 -5 16 -9 30 -9 34 0 33 37 -1 46 -32 8 -33 28 0 22 13 -3 22 -1 19 3
-6 11 -38 12 -47 2z"/>
<path d="M5918 9093 c-2 -5 -1 -24 3 -43 l6 -35 2 43 c1 39 -3 52 -11 35z"/>
<path d="M6004 9093 c3 -6 -6 -25 -20 -42 l-26 -31 34 1 c25 1 27 3 10 6 l-24
5 23 24 c19 20 20 26 9 37 -8 8 -11 8 -6 0z"/>
<path d="M6066 9070 c9 -50 20 -56 34 -18 l12 33 10 -34 c11 -39 23 -31 32 19
l6 35 -13 -35 -14 -34 -6 32 c-8 41 -23 41 -33 0 l-7 -33 -13 35 -14 35 6 -35z"/>
<path d="M6176 9054 c-4 -14 -5 -28 -3 -31 3 -2 8 8 11 23 4 14 5 28 3 31 -3
2 -8 -8 -11 -23z"/>
<path d="M4541 9054 c0 -11 3 -14 6 -6 3 7 2 16 -1 19 -3 4 -6 -2 -5 -13z"/>
<path d="M5076 8988 c8 -50 14 -62 14 -27 0 13 3 34 6 47 5 16 2 22 -10 22
-13 0 -15 -7 -10 -42z"/>
<path d="M6740 8945 c-17 -21 -4 -67 18 -63 25 5 28 38 3 45 -11 3 -18 10 -15
15 3 5 13 7 21 4 8 -3 11 -1 8 4 -9 14 -21 12 -35 -5z m30 -40 c0 -8 -4 -15
-9 -15 -13 0 -22 16 -14 24 11 11 23 6 23 -9z"/>
<path d="M6791 8944 c0 -11 3 -14 6 -6 3 7 2 16 -1 19 -3 4 -6 -2 -5 -13z"/>
<path d="M6480 8921 c-22 -7 -20 -8 18 -12 30 -3 42 -1 42 8 0 14 -21 15 -60
4z"/>
<path d="M7000 8917 c0 -9 12 -11 43 -8 37 4 39 5 17 12 -39 11 -60 10 -60 -4z"/>
<path d="M1052 8683 l3 -138 53 -3 52 -3 0 140 0 141 -55 0 -56 0 3 -137z"/>
<path d="M2366 8801 c-25 -28 -31 -83 -12 -119 43 -82 148 -30 132 66 -7 47
-32 72 -71 72 -18 0 -39 -8 -49 -19z"/>
<path d="M2490 8595 l0 -56 138 3 137 3 3 53 3 52 -140 0 -141 0 0 -55z"/>
<path d="M1080 8295 c0 -117 4 -185 10 -185 6 0 10 68 10 185 0 117 -4 185
-10 185 -6 0 -10 -68 -10 -185z"/>
<path d="M1247 8433 c-11 -10 -8 -143 3 -143 6 0 10 15 10 34 0 33 2 35 38 39
l37 4 -37 1 c-33 2 -38 5 -38 27 0 23 4 25 40 25 22 0 40 5 40 10 0 11 -83 14
-93 3z"/>
<path d="M1377 8433 c-11 -10 -8 -143 3 -143 6 0 10 32 10 75 0 75 -1 81 -13
68z"/>
<path d="M1430 8366 c0 -44 4 -76 10 -76 6 0 10 16 10 35 0 48 31 48 62 0 13
-19 26 -35 31 -35 12 0 8 13 -12 39 -18 23 -18 24 0 42 35 35 18 58 -49 66
l-52 6 0 -77z m95 29 c0 -16 -8 -21 -37 -23 -35 -3 -38 -1 -38 23 0 24 3 26
38 23 29 -2 37 -7 37 -23z"/>
<path d="M1580 8365 l0 -75 58 2 c56 2 56 2 10 5 -45 4 -48 6 -48 33 0 27 3
29 43 33 l42 4 -42 1 c-39 2 -43 5 -43 27 0 23 4 25 46 25 27 0 43 4 39 10 -3
6 -28 10 -56 10 l-49 0 0 -75z"/>
<path d="M1780 8365 l0 -75 58 2 c56 2 56 2 10 5 -45 4 -48 6 -48 33 0 27 3
29 43 33 l42 4 -42 1 c-39 2 -43 5 -43 27 0 23 4 25 46 25 27 0 43 4 39 10 -3
6 -28 10 -56 10 l-49 0 0 -75z"/>
<path d="M1920 8435 c0 -5 9 -21 20 -35 25 -32 25 -35 -6 -76 -33 -43 -20 -45
16 -2 l27 32 19 -32 c10 -18 22 -32 26 -32 14 0 8 14 -17 45 l-24 29 25 34
c15 18 24 36 21 38 -3 3 -16 -9 -28 -26 l-24 -31 -27 33 c-15 18 -27 29 -28
23z"/>
<path d="M2067 8433 c-11 -10 -8 -143 3 -143 6 0 10 32 10 75 0 75 -1 81 -13
68z"/>
<path d="M2110 8430 c0 -5 11 -10 25 -10 23 0 24 -3 28 -67 l3 -68 2 68 c2 64
3 67 27 67 14 0 25 5 25 10 0 6 -25 10 -55 10 -30 0 -55 -4 -55 -10z"/>
<path d="M2313 8365 c0 -44 2 -61 4 -37 2 23 2 59 0 80 -2 20 -4 1 -4 -43z"/>
<path d="M2373 8365 c0 -44 2 -61 4 -37 2 23 2 59 0 80 -2 20 -4 1 -4 -43z"/>
<path d="M6335 8230 c-3 -6 1 -7 9 -4 23 9 20 -16 -6 -43 l-21 -23 29 1 c18 1
22 3 11 6 -17 4 -18 6 -2 24 10 10 15 25 12 34 -7 17 -23 20 -32 5z"/>
<path d="M6381 8224 c0 -11 3 -14 6 -6 3 7 2 16 -1 19 -3 4 -6 -2 -5 -13z"/>
<path d="M6175 8200 c-4 -6 12 -10 42 -9 39 1 43 3 23 9 -36 11 -58 11 -65 0z"/>
<path d="M6480 8200 c-21 -7 -19 -8 18 -9 23 -1 42 4 42 9 0 12 -24 12 -60 0z"/>
<path d="M6570 8114 c0 -10 -3 -29 -6 -41 -5 -17 -2 -23 9 -23 13 0 15 8 10
38 -7 42 -13 55 -13 26z"/>
<path d="M6770 7969 c0 -5 5 -7 10 -4 6 3 10 8 10 11 0 2 -4 4 -10 4 -5 0 -10
-5 -10 -11z"/>
<path d="M6805 7972 c4 -8 -2 -23 -16 -38 l-22 -24 29 1 c18 1 22 3 11 6 -18
5 -18 6 -1 24 14 16 15 22 4 32 -10 9 -11 9 -5 -1z"/>
<path d="M6830 7960 c0 -18 11 -25 34 -21 5 1 6 -5 2 -14 -3 -9 -2 -13 4 -10
12 8 13 52 1 59 -5 3 -8 0 -7 -7 0 -6 -3 -12 -9 -12 -5 0 -9 6 -9 13 1 6 -2
12 -7 12 -5 0 -9 -9 -9 -20z"/>
<path d="M6945 7961 c-3 -11 -14 -22 -23 -24 -12 -3 -11 -5 6 -6 12 0 22 -5
22 -11 0 -5 9 -10 20 -10 24 0 28 38 5 46 -8 4 -12 10 -9 15 3 5 1 9 -5 9 -5
0 -12 -9 -16 -19z m35 -27 c0 -21 -17 -17 -23 5 -3 14 -1 18 9 14 8 -3 14 -11
14 -19z"/>
<path d="M7015 7970 c3 -5 8 -10 11 -10 2 0 4 5 4 10 0 6 -5 10 -11 10 -5 0
-7 -4 -4 -10z"/>
<path d="M6570 7955 c-1 -5 -2 -18 -1 -27 1 -10 -3 -18 -9 -18 -6 0 -8 5 -4
12 4 7 3 8 -4 4 -18 -11 -14 -23 8 -29 25 -6 28 0 19 38 -3 17 -8 26 -9 20z"/>
<path d="M3002 7727 l-41 -72 25 -3 24 -3 0 -215 0 -214 -24 0 c-25 0 -25 0
16 -71 22 -38 43 -68 46 -65 2 3 22 34 43 68 l38 63 -25 3 -24 3 0 215 0 214
25 0 c14 0 25 2 25 5 0 3 -19 36 -43 74 l-44 70 -41 -72z"/>
<path d="M6561 7783 c1 -10 5 -29 9 -43 7 -21 8 -22 9 -5 1 11 4 30 7 43 5 16
2 22 -10 22 -9 0 -16 -8 -15 -17z"/>
<path d="M1321 7506 l-1 -40 29 28 c26 25 30 26 34 9 3 -12 5 -9 6 10 1 34 -6
34 -33 0 l-21 -27 -6 29 c-6 28 -7 27 -8 -9z"/>
<path d="M6027 7347 c-21 -33 -21 -34 3 -40 26 -7 31 3 22 38 l-8 28 -17 -26z
m13 -17 c0 -5 -5 -10 -11 -10 -5 0 -7 5 -4 10 3 6 8 10 11 10 2 0 4 -4 4 -10z"/>
<path d="M4757 7337 c-21 -33 -21 -34 3 -40 26 -7 31 3 22 38 l-8 28 -17 -26z
m13 -17 c0 -5 -5 -10 -11 -10 -5 0 -7 5 -4 10 3 6 8 10 11 10 2 0 4 -4 4 -10z"/>
<path d="M5870 7340 c-19 -4 -26 -8 -15 -9 11 -1 30 -4 43 -7 16 -5 22 -2 22
10 0 9 -3 15 -7 15 -5 -1 -24 -5 -43 -9z"/>
<path d="M6175 7341 c-9 -16 15 -21 55 -12 31 8 32 9 8 10 -14 1 -33 4 -41 7
-8 3 -18 1 -22 -5z"/>
<path d="M4600 7330 c-19 -4 -26 -8 -15 -9 11 -1 30 -4 43 -7 16 -5 22 -2 22
10 0 9 -3 15 -7 15 -5 -1 -24 -5 -43 -9z"/>
<path d="M4905 7331 c-9 -16 16 -22 50 -12 24 7 25 9 8 10 -12 1 -28 4 -36 7
-8 3 -18 1 -22 -5z"/>
<path d="M1080 6965 c0 -117 4 -185 10 -185 6 0 10 68 10 185 0 117 -4 185
-10 185 -6 0 -10 -68 -10 -185z"/>
<path d="M3534 6519 c-18 -23 -27 -45 -10 -25 15 19 16 19 16 -9 0 -19 3 -26
10 -19 5 5 6 22 2 38 -6 22 -10 25 -18 15z"/>
<path d="M3355 6501 c-16 -7 -11 -9 23 -12 29 -3 42 -1 42 8 0 14 -34 16 -65
4z"/>
<path d="M3672 6499 c2 -6 7 -10 11 -10 4 1 19 1 35 1 21 0 24 2 12 10 -20 13
-63 13 -58 -1z"/>
<path d="M6890 6486 c0 -14 5 -28 10 -31 6 -4 10 7 10 24 0 17 -4 31 -10 31
-5 0 -10 -11 -10 -24z"/>
<path d="M1050 6290 l0 -140 111 0 112 0 -7 -40 c-5 -32 -3 -40 9 -40 12 0 14
8 9 40 -6 37 -5 40 17 40 24 0 24 0 22 107 -1 60 -2 123 -3 141 l0 32 -135 0
-135 0 0 -140z"/>
<path d="M2458 6423 l202 -3 0 -135 0 -135 55 0 55 0 0 140 0 140 -257 -2
-258 -3 203 -2z"/>
<path d="M4710 6290 l0 -140 135 0 135 0 0 140 0 140 -135 0 -135 0 0 -140z"/>
<path d="M1840 6265 c-11 -13 -10 -19 5 -33 18 -16 18 -16 6 0 -13 17 -8 38 9
38 5 0 11 -10 13 -22 5 -21 5 -21 4 1 -2 30 -19 37 -37 16z"/>
<path d="M1998 6273 c6 -2 18 -2 25 0 6 3 1 5 -13 5 -14 0 -19 -2 -12 -5z"/>
<path d="M2048 6273 c7 -3 16 -2 19 1 4 3 -2 6 -13 5 -11 0 -14 -3 -6 -6z"/>
<path d="M2084 6265 c-3 -8 -4 -20 -1 -27 3 -7 6 -3 6 9 1 12 7 24 14 26 9 4
9 6 -1 6 -7 1 -15 -6 -18 -14z"/>
<path d="M1781 6254 c0 -11 3 -14 6 -6 3 7 2 16 -1 19 -3 4 -6 -2 -5 -13z"/>
<path d="M1894 6245 c1 -28 30 -25 34 3 2 19 1 19 -4 2 -7 -25 -21 -26 -27 -2
-3 13 -4 12 -3 -3z"/>
<path d="M1940 6251 c0 -25 6 -27 13 -6 4 8 2 17 -3 20 -6 4 -10 -3 -10 -14z"/>
<path d="M1967 6255 c-4 -8 -2 -17 3 -20 6 -4 10 3 10 14 0 25 -6 27 -13 6z"/>
<path d="M2105 6251 c-3 -5 -2 -12 3 -15 5 -3 9 1 9 9 0 17 -3 19 -12 6z"/>
<path d="M5030 6134 c0 -10 -3 -29 -6 -41 -5 -17 -2 -23 10 -23 14 0 16 6 10
38 -8 42 -14 54 -14 26z"/>
<path d="M4813 6035 c-86 -37 -64 -159 32 -172 32 -4 48 0 78 21 20 14 37 21
37 15 0 -6 5 -7 10 -4 26 16 -22 119 -65 139 -40 19 -51 19 -92 1z"/>
<path d="M5062 5940 c-6 -11 -12 -23 -12 -27 0 -5 6 1 12 12 12 19 13 18 19
-10 6 -29 7 -29 8 8 1 41 -8 47 -27 17z"/>
<path d="M5018 5913 c7 -3 16 -2 19 1 4 3 -2 6 -13 5 -11 0 -14 -3 -6 -6z"/>
<path d="M8530 5415 l0 -444 -81 -188 c-45 -103 -89 -206 -99 -228 -60 -131
-289 -669 -287 -671 2 -2 143 184 315 414 l311 417 1 183 0 182 -25 0 -25 0 0
345 0 345 25 0 c23 0 25 4 25 45 l0 45 -80 0 -80 0 0 -445z"/>
<path d="M5026 5743 c8 -47 14 -55 14 -20 0 14 3 32 6 41 4 11 1 16 -10 16
-14 0 -16 -7 -10 -37z"/>
<path d="M3002 5431 c-40 -71 -40 -71 -16 -71 l24 0 0 -220 0 -220 -24 0 c-25
0 -25 0 16 -71 22 -38 43 -68 46 -65 2 3 22 34 43 68 l38 63 -25 3 -24 3 0
219 0 219 25 3 25 3 -43 68 -44 68 -41 -70z"/>
<path d="M1640 5465 c0 -14 2 -25 4 -25 2 0 6 11 8 25 3 14 1 25 -3 25 -5 0
-9 -11 -9 -25z"/>
<path d="M1703 5484 c11 -3 16 -12 13 -20 -3 -7 -1 -16 3 -18 5 -3 8 4 7 17
-1 14 -8 22 -21 24 -17 2 -17 1 -2 -3z"/>
<path d="M1748 5483 c7 -3 16 -2 19 1 4 3 -2 6 -13 5 -11 0 -14 -3 -6 -6z"/>
<path d="M1929 5478 c11 -15 11 -21 0 -35 -12 -17 -12 -17 6 0 19 17 19 17 0
35 -18 16 -18 16 -6 0z"/>
<path d="M2015 5480 c4 -6 11 -8 16 -5 14 9 11 15 -7 15 -8 0 -12 -5 -9 -10z"/>
<path d="M2075 5479 c-5 -8 -4 -10 3 -5 16 10 15 -6 0 -24 -7 -8 -4 -7 7 2 14
13 16 21 8 29 -8 8 -13 7 -18 -2z"/>
<path d="M1791 5461 c-9 -17 -8 -18 11 -13 13 3 17 7 10 10 -7 2 -10 8 -6 13
3 5 3 9 0 9 -3 0 -10 -9 -15 -19z"/>
<path d="M1831 5456 c0 -12 3 -15 6 -8 4 10 8 10 21 0 15 -11 15 -11 5 3 -7 9
-11 18 -8 21 3 2 -2 5 -10 5 -9 0 -15 -9 -14 -21z"/>
<path d="M1902 5460 c0 -14 2 -19 5 -12 2 6 2 18 0 25 -3 6 -5 1 -5 -13z"/>
<path d="M1991 5464 c0 -11 3 -14 6 -6 3 7 2 16 -1 19 -3 4 -6 -2 -5 -13z"/>
<path d="M1666 5457 c3 -10 9 -15 12 -12 3 3 0 11 -7 18 -10 9 -11 8 -5 -6z"/>
<path d="M1741 5454 c0 -11 3 -14 6 -6 3 7 2 16 -1 19 -3 4 -6 -2 -5 -13z"/>
<path d="M1205 5450 c-3 -5 0 -7 8 -4 8 3 18 1 22 -5 3 -6 1 -11 -6 -11 -10 0
-10 -3 -1 -12 19 -19 14 -31 -9 -25 -16 4 -19 3 -11 -5 17 -17 43 -1 40 24 -6
41 -29 61 -43 38z"/>
<path d="M1261 5444 c0 -11 3 -14 6 -6 3 7 2 16 -1 19 -3 4 -6 -2 -5 -13z"/>
<path d="M1325 5451 c-3 -7 0 -8 9 -5 11 4 16 0 16 -11 0 -11 -5 -15 -15 -11
-8 3 -15 1 -15 -4 0 -6 7 -10 15 -10 8 0 15 -5 15 -11 0 -6 -7 -9 -15 -5 -8 3
-15 1 -15 -5 0 -6 8 -9 18 -7 12 2 17 13 17 37 0 34 -17 52 -30 32z"/>
<path d="M1385 5451 c-3 -5 -1 -12 5 -16 5 -3 10 1 10 9 0 18 -6 21 -15 7z"/>
<path d="M1155 5440 c-3 -5 -2 -10 4 -10 5 0 12 -12 14 -27 3 -23 4 -21 6 10
1 35 -11 49 -24 27z"/>
<path d="M1288 5403 c7 -3 16 -2 19 1 4 3 -2 6 -13 5 -11 0 -14 -3 -6 -6z"/>
<path d="M3728 5256 c-7 -39 -4 -55 8 -44 3 3 4 23 2 44 l-3 39 -7 -39z"/>
<path d="M3712 5100 c-6 -11 -12 -23 -12 -27 0 -5 6 1 12 12 12 19 13 18 19
-10 6 -29 7 -29 8 8 1 41 -8 47 -27 17z"/>
<path d="M4630 5051 c0 -6 8 -7 17 -4 12 5 15 2 10 -10 -3 -9 -2 -19 3 -22 18
-11 10 -27 -10 -22 -11 3 -20 1 -20 -5 0 -5 10 -8 23 -6 18 2 22 9 22 38 -1
28 -5 36 -23 38 -12 2 -22 -1 -22 -7z"/>
<path d="M4699 5035 c-1 -14 -2 -31 -3 -37 -1 -7 10 -13 24 -13 14 0 25 6 24
13 -1 6 -2 23 -2 37 -2 18 -8 25 -22 25 -14 0 -20 -7 -21 -25z m31 5 c0 -5 -4
-10 -10 -10 -5 0 -10 5 -10 10 0 6 5 10 10 10 6 0 10 -4 10 -10z m8 -38 c2 -7
-6 -12 -17 -12 -21 0 -27 11 -14 24 9 9 26 2 31 -12z"/>
<path d="M4796 5030 c8 -44 21 -60 30 -34 15 48 17 48 26 15 11 -39 23 -31 32
19 l6 35 -13 -35 -14 -34 -6 32 c-8 41 -23 41 -33 0 l-7 -33 -13 35 -14 35 6
-35z"/>
<path d="M4916 5045 c-3 -9 -6 -22 -5 -28 0 -7 5 -1 10 12 5 13 8 26 5 28 -2
2 -6 -3 -10 -12z"/>
<path d="M4947 5053 c-13 -12 -7 -23 18 -35 14 -6 25 -16 25 -21 0 -5 -11 -7
-25 -5 -14 3 -25 1 -25 -3 0 -5 14 -9 30 -9 39 0 43 36 5 46 -32 8 -33 28 0
22 13 -3 22 -1 19 3 -6 11 -38 12 -47 2z"/>
<path d="M3726 4923 c9 -51 11 -51 16 -4 2 29 0 41 -10 41 -10 0 -11 -10 -6
-37z"/>
<path d="M1788 4844 c-39 -20 -38 -58 2 -79 62 -32 170 -8 170 39 0 49 -109
75 -172 40z"/>
<path d="M1266 4783 c8 -43 14 -55 14 -27 0 10 3 29 6 42 5 16 2 22 -10 22
-14 0 -16 -6 -10 -37z"/>
<path d="M6217 4803 c-13 -12 -7 -23 18 -35 14 -6 25 -16 25 -21 0 -5 -11 -7
-25 -5 -14 3 -25 1 -25 -3 0 -5 14 -9 30 -9 39 0 43 36 5 46 -32 8 -33 28 0
22 13 -3 22 -1 19 3 -6 11 -38 12 -47 2z"/>
<path d="M6292 4803 c11 -3 18 -17 21 -41 l4 -37 1 37 c1 25 7 38 20 41 9 3
-1 5 -23 5 -22 0 -32 -2 -23 -5z"/>
<path d="M6364 4796 c-3 -9 -3 -28 0 -42 5 -20 12 -25 33 -22 34 4 52 31 37
56 -15 23 -62 28 -70 8z m60 -11 c8 -23 -4 -45 -25 -45 -22 0 -34 22 -25 45 3
8 14 15 25 15 10 0 21 -7 25 -15z"/>
<path d="M6450 4770 c0 -22 5 -40 10 -40 6 0 10 16 10 35 0 28 4 35 20 35 23
0 27 -15 5 -24 -13 -5 -13 -8 2 -25 9 -11 19 -18 21 -16 3 3 -1 11 -8 20 -8
10 -9 15 -1 15 6 0 11 9 11 20 0 16 -7 20 -35 20 -34 0 -35 -1 -35 -40z"/>
<path d="M6560 4806 c0 -2 -7 -21 -16 -42 -11 -27 -12 -35 -3 -26 16 14 49 16
49 2 0 -5 4 -10 9 -10 5 0 2 18 -6 40 -9 22 -20 40 -25 40 -4 0 -8 -2 -8 -4z
m20 -37 c0 -5 -4 -9 -10 -9 -5 0 -10 7 -10 16 0 8 5 12 10 9 6 -3 10 -10 10
-16z"/>
<path d="M6620 4790 c-16 -30 4 -60 40 -60 23 0 30 4 30 20 0 13 -6 20 -17 19
-11 0 -13 -3 -5 -6 21 -8 13 -23 -13 -23 -21 0 -25 5 -25 31 0 29 2 31 29 27
17 -2 28 -1 25 4 -10 16 -53 8 -64 -12z"/>
<path d="M6710 4770 c0 -39 1 -40 33 -39 30 2 30 2 5 6 -34 5 -37 30 -5 36
l22 4 -22 2 c-32 2 -29 19 5 24 25 4 25 4 -5 6 -32 1 -33 0 -33 -39z"/>
<path d="M1267 4676 c-7 -41 -1 -64 13 -49 5 4 5 26 1 48 l-7 40 -7 -39z"/>
<path d="M1571 4618 c1 -39 2 -40 8 -13 l7 30 7 -27 c4 -16 11 -28 16 -28 5 0
12 12 17 28 l7 27 7 -30 c7 -28 8 -27 9 13 1 50 -10 54 -28 10 l-13 -33 -11
33 c-14 45 -27 40 -26 -10z"/>
<path d="M1798 4649 c-6 -17 3 -69 11 -69 7 0 6 69 -2 76 -3 3 -7 0 -9 -7z"/>
<path d="M2020 4620 c0 -22 5 -40 10 -40 6 0 10 7 10 15 0 20 26 19 34 -1 4
-9 9 -14 13 -11 3 4 0 13 -7 22 -8 10 -9 15 -1 15 6 0 11 9 11 20 0 16 -7 20
-35 20 -34 0 -35 -1 -35 -40z m60 21 c0 -5 -7 -12 -16 -15 -22 -9 -24 -8 -24
9 0 8 9 15 20 15 11 0 20 -4 20 -9z"/>
<path d="M6087 4643 c-12 -12 -7 -53 6 -53 9 0 12 10 9 30 -5 32 -5 33 -15 23z"/>
<path d="M1672 4623 c-5 -10 -7 -24 -5 -30 5 -15 39 -17 47 -4 4 5 -3 7 -14 4
-15 -4 -20 0 -20 16 0 21 24 29 33 11 3 -6 4 -5 3 2 -4 20 -34 21 -44 1z"/>
<path d="M1734 4626 c-9 -24 3 -46 26 -46 17 0 21 5 18 27 -3 31 -34 44 -44
19z m36 -16 c0 -11 -7 -20 -15 -20 -15 0 -21 21 -8 33 12 13 23 7 23 -13z"/>
<path d="M1832 4610 c0 -19 2 -27 5 -17 2 9 2 25 0 35 -3 9 -5 1 -5 -18z"/>
<path d="M1861 4608 c2 -31 2 -31 6 -5 5 33 24 31 35 -4 6 -22 7 -21 5 6 -2
23 -7 31 -24 33 -20 3 -23 -1 -22 -30z"/>
<path d="M1927 4633 c-14 -14 -6 -45 13 -50 11 -3 20 -10 20 -15 0 -5 -10 -6
-22 -3 -18 6 -20 5 -11 -5 22 -23 43 -3 43 40 0 32 -4 40 -18 40 -10 0 -22 -3
-25 -7z m33 -23 c0 -11 -7 -20 -15 -20 -8 0 -15 9 -15 20 0 11 7 20 15 20 8 0
15 -9 15 -20z"/>
<path d="M2111 4623 c-12 -24 1 -46 25 -41 13 2 19 12 19 28 0 30 -30 39 -44
13z m39 -13 c0 -11 -6 -20 -13 -20 -19 0 -27 10 -20 26 8 21 33 17 33 -6z"/>
<path d="M2174 4625 c-9 -23 3 -45 25 -45 23 0 35 28 20 46 -15 18 -38 18 -45
-1z m39 -9 c7 -16 -1 -26 -20 -26 -7 0 -13 9 -13 20 0 23 25 27 33 6z"/>
<path d="M2241 4608 c2 -31 2 -31 6 -5 2 15 9 27 14 27 5 0 9 -12 10 -27 1
-28 1 -28 8 -4 9 34 29 37 34 6 4 -24 4 -24 3 2 -1 25 -5 28 -38 31 -37 2 -38
1 -37 -30z"/>
<path d="M6387 4603 c-2 -5 0 -21 4 -38 7 -29 7 -29 8 8 1 35 -3 46 -12 30z"/>
<path d="M6447 4603 c-2 -5 0 -21 4 -38 7 -29 7 -29 8 8 1 35 -3 46 -12 30z"/>
<path d="M6563 4604 c20 -6 23 -24 5 -24 -9 0 -10 -3 -2 -8 6 -4 14 -14 17
-22 3 -8 5 1 4 20 -2 27 -7 35 -22 37 -16 1 -16 1 -2 -3z"/>
<path d="M7000 4573 c0 -7 11 -13 24 -13 36 0 41 17 6 22 -20 3 -30 0 -30 -9z"/>
<path d="M5945 4570 c3 -5 17 -10 31 -10 13 0 24 5 24 10 0 6 -14 10 -31 10
-17 0 -28 -4 -24 -10z"/>
<path d="M8138 4448 c-3 -27 0 -38 9 -38 14 0 16 24 4 55 -7 16 -9 13 -13 -17z"/>
<path d="M7735 4430 c-3 -5 -2 -10 4 -10 5 0 12 -12 14 -27 3 -23 4 -21 6 10
1 35 -11 49 -24 27z"/>
<path d="M7804 4429 c-18 -23 -27 -45 -10 -25 15 19 16 19 16 -9 0 -19 3 -26
10 -19 5 5 6 22 2 38 -6 22 -10 25 -18 15z"/>
<path d="M7900 4420 c0 -18 11 -25 34 -21 5 1 6 -5 2 -14 -3 -9 -2 -13 4 -10
12 8 13 52 1 59 -5 3 -8 0 -7 -7 0 -6 -3 -12 -9 -12 -5 0 -9 6 -9 13 1 6 -2
12 -7 12 -5 0 -9 -9 -9 -20z"/>
<path d="M7120 4411 c-22 -7 -20 -8 18 -12 30 -3 42 -1 42 8 0 14 -21 15 -60
4z"/>
<path d="M8537 4414 c-14 -14 3 -19 45 -15 37 4 40 5 18 12 -33 9 -55 10 -63
3z"/>
<path d="M7868 4393 c7 -3 16 -2 19 1 4 3 -2 6 -13 5 -11 0 -14 -3 -6 -6z"/>
<path d="M1181 4236 c-14 -17 -7 -36 15 -36 20 0 18 -17 -3 -24 -14 -4 -14 -4
2 -3 16 2 20 10 20 36 0 38 -15 50 -34 27z m29 -11 c0 -8 -7 -15 -15 -15 -16
0 -20 12 -8 23 11 12 23 8 23 -8z"/>
<path d="M1231 4234 c0 -11 3 -14 6 -6 3 7 2 16 -1 19 -3 4 -6 -2 -5 -13z"/>
<path d="M1297 4243 c-3 -5 -4 -21 -3 -38 1 -23 6 -30 21 -30 14 0 20 7 21 25
1 36 -26 65 -39 43z m28 -13 c3 -5 -1 -10 -10 -10 -9 0 -13 5 -10 10 3 6 8 10
10 10 2 0 7 -4 10 -10z m5 -41 c0 -5 -7 -9 -15 -9 -15 0 -20 12 -9 23 8 8 24
-1 24 -14z"/>
<path d="M1351 4234 c0 -11 3 -14 6 -6 3 7 2 16 -1 19 -3 4 -6 -2 -5 -13z"/>
<path d="M1371 4234 c0 -11 3 -14 6 -6 3 7 2 16 -1 19 -3 4 -6 -2 -5 -13z"/>
<path d="M1258 4193 c7 -3 16 -2 19 1 4 3 -2 6 -13 5 -11 0 -14 -3 -6 -6z"/>
<path d="M1132 3813 l-2 -103 383 2 382 3 -309 2 -308 3 6 35 c6 28 4 35 -9
35 -13 0 -15 -7 -9 -35 l6 -35 -66 0 c-60 0 -66 2 -66 21 0 18 5 21 35 17 25
-3 35 0 35 10 0 11 -8 13 -35 8 l-34 -7 -4 73 c-3 63 -3 59 -5 -29z"/>
<path d="M3003 3843 l-41 -68 24 -3 24 -3 0 -215 0 -214 -26 0 -25 0 32 -57
c57 -102 50 -100 95 -26 51 86 50 83 20 83 l-26 0 0 215 0 215 26 0 25 0 -28
50 c-57 102 -54 101 -100 23z"/>
<path d="M1809 3793 c-8 -10 -9 -14 -2 -10 8 5 13 -3 16 -25 3 -29 4 -28 5 10
2 47 0 49 -19 25z"/>
<path d="M1867 3803 c-14 -13 -7 -31 14 -36 12 -3 18 -10 14 -17 -4 -6 -13 -9
-21 -6 -8 3 -14 1 -14 -4 0 -15 37 -12 42 3 7 18 -2 37 -18 37 -20 0 -17 18 4
23 14 4 14 5 1 6 -9 0 -19 -2 -22 -6z"/>
<path d="M1992 3803 c15 -4 15 -7 2 -39 -8 -19 -12 -34 -9 -34 4 0 35 67 35
76 0 2 -10 3 -22 3 -16 -1 -18 -3 -6 -6z"/>
<path d="M2031 3794 c0 -11 3 -14 6 -6 3 7 2 16 -1 19 -3 4 -6 -2 -5 -13z"/>
<path d="M2051 3794 c0 -11 3 -14 6 -6 3 7 2 16 -1 19 -3 4 -6 -2 -5 -13z"/>
<path d="M5977 3793 c-2 -5 0 -21 4 -38 7 -29 7 -29 8 8 1 35 -3 46 -12 30z"/>
<path d="M6020 3790 c0 -5 7 -7 15 -4 9 4 15 0 15 -9 0 -8 -7 -17 -15 -21 -8
-3 -15 -11 -15 -17 0 -7 8 -5 20 6 11 10 20 26 20 37 0 11 -7 18 -20 18 -11 0
-20 -4 -20 -10z"/>
<path d="M6160 3795 c-1 -5 -2 -18 -1 -27 1 -10 -3 -18 -9 -18 -6 0 -8 5 -4
12 4 7 3 8 -4 4 -18 -11 -14 -23 8 -29 25 -6 28 0 19 38 -3 17 -8 26 -9 20z"/>
<path d="M3243 3783 c-12 -2 -24 -11 -27 -19 -7 -19 2 -18 49 6 37 19 30 23
-22 13z"/>
<path d="M3708 3762 c-2 -18 -1 -35 4 -38 17 -11 21 5 11 38 l-9 33 -6 -33z"/>
<path d="M2652 3769 c2 -6 7 -10 11 -10 4 1 19 1 35 1 21 0 24 2 12 10 -20 13
-63 13 -58 -1z"/>
<path d="M7290 3651 c0 -23 5 -41 10 -41 6 0 10 7 10 15 0 20 20 19 35 -2 10
-14 12 -10 11 23 -1 36 -3 39 -33 42 -32 3 -33 2 -33 -37z m58 17 c-7 -19 -38
-22 -38 -4 0 10 9 16 21 16 12 0 19 -5 17 -12z"/>
<path d="M7380 3650 c0 -39 1 -40 33 -39 30 2 30 2 5 6 -34 5 -37 20 -5 26
l22 4 -22 2 c-33 2 -29 29 5 34 25 4 25 4 -5 6 -32 1 -33 0 -33 -39z"/>
<path d="M7467 3683 c-4 -3 -7 -19 -7 -34 0 -37 30 -54 56 -33 18 15 18 15 -2
5 -27 -13 -47 1 -42 30 2 19 8 24 31 22 15 -1 25 2 22 8 -7 10 -48 12 -58 2z"/>
<path d="M7550 3650 c0 -39 1 -40 33 -39 30 2 30 2 5 6 -34 5 -37 20 -5 26
l22 4 -22 2 c-33 2 -29 29 5 34 25 4 25 4 -5 6 -32 1 -33 0 -33 -39z"/>
<path d="M7631 3648 c1 -24 3 -35 6 -26 2 9 14 18 26 20 34 5 29 42 -5 46 -27
3 -28 2 -27 -40z m49 17 c0 -8 -9 -15 -20 -15 -11 0 -20 7 -20 15 0 8 9 15 20
15 11 0 20 -7 20 -15z"/>
<path d="M7712 3683 c11 -3 18 -17 21 -41 l4 -37 1 37 c1 25 7 38 20 41 9 3
-1 5 -23 5 -22 0 -32 -2 -23 -5z"/>
<path d="M7783 3650 c0 -25 2 -35 4 -22 2 12 2 32 0 45 -2 12 -4 2 -4 -23z"/>
<path d="M7822 3678 c-18 -18 -14 -56 7 -68 26 -14 50 -3 57 26 11 42 -34 72
-64 42z m53 -19 c10 -30 -18 -57 -39 -39 -16 13 -21 42 -9 53 14 14 42 6 48
-14z"/>
<path d="M7901 3648 c2 -30 3 -35 6 -15 5 30 18 35 27 11 4 -9 9 -14 12 -11 7
7 -25 57 -37 57 -5 0 -8 -19 -8 -42z"/>
<path d="M7959 3655 c-6 -40 -4 -53 7 -43 3 3 4 23 2 44 l-3 39 -6 -40z"/>
<path d="M8035 3650 c-3 -5 -2 -10 4 -10 5 0 12 -12 14 -27 3 -23 4 -21 6 10
1 35 -11 49 -24 27z"/>
<path d="M8087 3653 c-10 -9 -8 -51 2 -57 5 -3 8 0 7 7 0 6 4 12 9 12 6 0 9
-6 8 -14 -1 -9 2 -10 9 -3 16 16 1 45 -18 38 -12 -4 -15 -2 -10 9 6 16 3 19
-7 8z"/>
<path d="M8228 3625 c-2 -19 0 -35 4 -35 4 0 8 16 8 35 0 19 -2 35 -4 35 -2 0
-6 -16 -8 -35z"/>
<path d="M8265 3650 c3 -5 8 -10 11 -10 2 0 4 5 4 10 0 6 -5 10 -11 10 -5 0
-7 -4 -4 -10z"/>
<path d="M3590 3630 c0 -5 6 -7 13 -4 10 3 14 -4 15 -26 1 -26 -2 -30 -16 -25
-13 5 -14 3 -5 -6 18 -18 33 -1 33 37 0 27 -4 34 -20 34 -11 0 -20 -4 -20 -10z"/>
<path d="M3720 3630 c-9 -6 -10 -10 -3 -10 6 0 14 -12 16 -27 3 -23 4 -21 6
10 0 20 0 37 -1 37 -2 0 -10 -5 -18 -10z"/>
<path d="M3783 3634 c13 -4 17 -14 15 -32 -4 -32 -20 -32 -30 0 -6 22 -6 22
-7 2 -1 -26 20 -46 38 -35 20 13 10 65 -14 68 -17 2 -17 1 -2 -3z"/>
<path d="M8168 3613 c7 -3 16 -2 19 1 4 3 -2 6 -13 5 -11 0 -14 -3 -6 -6z"/>
<path d="M6001 3538 c1 -39 2 -41 9 -13 l7 30 11 -28 c12 -29 31 -29 33 1 1
11 4 8 9 -8 7 -21 8 -18 9 18 1 49 -14 48 -25 -1 l-7 -32 -12 34 c-17 52 -35
51 -34 -1z"/>
<path d="M6461 3538 c1 -24 3 -35 6 -25 6 22 22 22 38 0 10 -14 12 -10 11 23
-1 35 -4 39 -28 42 -27 3 -28 2 -27 -40z m47 20 c-7 -19 -38 -22 -38 -4 0 10
9 16 21 16 12 0 19 -5 17 -12z"/>
<path d="M6230 3542 c0 -17 3 -33 8 -35 4 -3 7 8 7 23 0 16 -3 32 -7 36 -5 4
-8 -7 -8 -24z"/>
<path d="M6107 3554 c-12 -12 -8 -52 6 -57 8 -3 20 -1 28 5 11 8 11 9 -3 4
-10 -3 -20 -1 -23 4 -4 6 3 10 15 10 15 0 20 5 18 17 -3 19 -29 29 -41 17z
m33 -14 c0 -5 -7 -10 -16 -10 -8 0 -12 5 -9 10 3 6 10 10 16 10 5 0 9 -4 9
-10z"/>
<path d="M6172 3548 c-16 -16 -15 -33 3 -48 13 -10 18 -11 28 -1 9 10 8 11 -4
6 -10 -4 -20 -2 -24 4 -4 7 4 11 19 11 14 0 26 4 26 8 0 9 -21 32 -30 32 -3 0
-11 -5 -18 -12z m33 -8 c3 -5 -3 -10 -15 -10 -12 0 -18 5 -15 10 3 6 10 10 15
10 5 0 12 -4 15 -10z"/>
<path d="M6291 3526 c1 -27 2 -28 7 -8 4 13 12 23 17 23 6 0 13 -10 17 -23 6
-19 7 -18 5 7 -2 23 -7 30 -24 31 -19 1 -23 -4 -22 -30z"/>
<path d="M6361 3546 c-12 -15 -5 -46 11 -46 7 0 7 4 0 13 -13 15 1 42 17 33
18 -11 7 -61 -13 -60 -9 1 -16 -3 -16 -8 0 -5 10 -8 23 -6 17 2 23 11 25 37 4
44 -23 66 -47 37z"/>
<path d="M6547 3554 c-12 -12 -8 -52 6 -57 22 -8 39 8 35 34 -3 23 -27 37 -41
23z m31 -26 c-2 -13 -7 -23 -13 -23 -5 0 -11 10 -13 23 -2 15 2 22 13 22 11 0
15 -7 13 -22z"/>
<path d="M6612 3548 c-16 -16 -15 -33 4 -48 22 -19 54 12 38 37 -14 22 -27 26
-42 11z m35 -14 c8 -21 -13 -42 -28 -27 -13 13 -5 43 11 43 6 0 13 -7 17 -16z"/>
<path d="M6683 3553 c-7 -3 -13 -17 -12 -31 l1 -27 7 24 c10 36 31 38 32 4 1
-26 1 -26 7 -5 4 13 12 23 17 23 6 0 13 -10 17 -23 5 -20 6 -20 7 -3 0 11 -3
25 -7 30 -7 11 -48 15 -69 8z"/>
<path d="M6272 3525 c0 -16 2 -22 5 -12 2 9 2 23 0 30 -3 6 -5 -1 -5 -18z"/>
<path d="M3709 3438 c4 -38 5 -40 12 -18 11 39 10 60 -4 60 -9 0 -11 -12 -8
-42z"/>
<path d="M6080 3456 c0 -14 5 -28 10 -31 6 -4 10 7 10 24 0 17 -4 31 -10 31
-5 0 -10 -11 -10 -24z"/>
<path d="M4560 3005 l0 -25 -240 0 -240 0 0 -30 0 -30 240 0 240 0 0 -25 c0
-14 3 -25 7 -25 4 0 38 19 75 41 62 38 67 43 49 53 -70 39 -121 66 -126 66 -3
0 -5 -11 -5 -25z"/>
<path d="M5710 3005 l0 -25 -245 0 -245 0 0 -30 0 -30 245 0 245 0 0 -26 c0
-31 7 -29 86 21 l57 37 -64 38 c-35 22 -67 39 -71 40 -5 0 -8 -11 -8 -25z"/>
<path d="M7578 3007 c-3 -22 -3 -22 -245 -25 l-243 -2 0 -30 0 -30 245 0 245
0 0 -25 c0 -14 2 -25 4 -25 3 0 35 19 71 41 l66 42 -30 18 c-16 10 -48 27 -70
38 l-40 21 -3 -23z"/>
<path d="M7904 2966 c-26 -26 -34 -42 -34 -70 0 -70 43 -116 108 -116 96 1
127 161 41 206 -45 23 -78 17 -115 -20z"/>
<path d="M6727 2873 c-3 -5 -8 -24 -11 -43 l-7 -35 21 39 c11 22 20 41 20 43
0 6 -19 3 -23 -4z"/>
<path d="M8251 2848 c-15 -42 -7 -47 13 -7 19 37 19 39 7 39 -5 0 -14 -14 -20
-32z"/>
<path d="M8148 2815 c2 -14 8 -25 13 -25 5 0 9 11 9 25 0 14 -6 25 -14 25 -9
0 -12 -8 -8 -25z"/>
<path d="M1052 2633 l3 -138 138 -3 137 -3 0 141 0 140 -140 0 -141 0 3 -137z"/>
<path d="M4710 2630 l0 -141 138 3 137 3 3 138 3 137 -141 0 -140 0 0 -140z"/>
<path d="M8370 2762 c-6 -2 -10 -57 -10 -138 l0 -135 138 3 137 3 0 135 0 135
-127 0 c-71 0 -132 -1 -138 -3z"/>
<path d="M5148 2662 c-2 -18 -1 -35 4 -38 16 -10 19 3 10 37 l-9 34 -5 -33z"/>
<path d="M3860 2365 c0 -30 5 -55 10 -55 6 0 10 11 10 25 0 21 5 25 29 25 30
0 45 19 35 45 -4 10 -20 15 -45 15 l-39 0 0 -55z m70 25 c0 -15 -7 -20 -25
-20 -18 0 -25 5 -25 20 0 15 7 20 25 20 18 0 25 -5 25 -20z"/>
<path d="M4594 2372 c0 -18 4 -32 9 -32 4 0 7 5 7 10 0 6 8 10 18 11 13 0 14
2 2 6 -8 4 -20 13 -26 21 -9 13 -11 9 -10 -16z"/>
<path d="M4202 2365 c0 -16 2 -22 5 -12 2 9 2 23 0 30 -3 6 -5 -1 -5 -18z"/>
<path d="M5131 2266 c-14 -17 -7 -36 15 -36 20 0 18 -17 -3 -24 -14 -4 -14 -4
2 -3 16 2 20 10 20 36 0 38 -15 50 -34 27z m29 -11 c0 -8 -7 -15 -15 -15 -16
0 -20 12 -8 23 11 12 23 8 23 -8z"/>
<path d="M5181 2264 c0 -11 3 -14 6 -6 3 7 2 16 -1 19 -3 4 -6 -2 -5 -13z"/>
<path d="M4253 2103 c-20 -7 -15 -41 7 -53 26 -14 25 -28 -2 -33 -20 -3 -21
-4 -5 -11 42 -19 68 32 27 54 -26 14 -26 30 1 30 11 0 17 5 14 10 -7 11 -22
12 -42 3z"/>
<path d="M4690 2055 c0 -30 5 -55 10 -55 6 0 10 10 10 23 l0 22 20 -25 c10
-14 22 -22 26 -18 4 4 1 14 -5 22 -10 11 -10 20 0 37 10 19 9 25 -7 36 -10 7
-26 13 -36 13 -15 0 -18 -9 -18 -55z m42 20 c0 -5 -5 -11 -11 -13 -6 -2 -11 4
-11 13 0 9 5 15 11 13 6 -2 11 -8 11 -13z"/>
<path d="M4323 2089 c-5 -5 -7 -26 -4 -47 5 -26 12 -38 26 -40 16 -3 18 -1 8
9 -15 15 -17 56 -4 61 5 2 3 8 -4 15 -8 7 -16 8 -22 2z"/>
<path d="M4380 2065 c-26 -32 13 -81 48 -59 34 22 22 74 -18 74 -10 0 -23 -7
-30 -15z m45 -25 c0 -27 -22 -39 -31 -16 -8 22 3 49 19 43 6 -2 12 -14 12 -27z"/>
<path d="M4460 2039 c0 -22 5 -39 10 -39 6 0 10 11 10 25 0 14 7 28 15 31 23
9 18 22 -10 22 -22 0 -25 -5 -25 -39z"/>
<path d="M4532 2068 c-25 -25 -7 -68 29 -68 10 0 21 5 24 11 4 6 1 10 -6 8
-25 -3 -39 1 -39 11 0 6 12 10 26 10 19 0 25 5 22 18 -4 21 -39 27 -56 10z
m43 -8 c3 -5 -3 -10 -15 -10 -12 0 -18 5 -15 10 3 6 10 10 15 10 5 0 12 -4 15
-10z"/>
<path d="M4780 2061 c-25 -47 36 -83 64 -38 8 12 8 22 0 35 -16 25 -51 27 -64
3z m46 -6 c4 -8 3 -23 0 -32 -6 -15 -8 -15 -22 -2 -8 9 -12 23 -8 32 8 21 23
22 30 2z"/>
<path d="M4870 2061 c-25 -47 36 -83 64 -38 8 12 8 22 0 35 -16 25 -51 27 -64
3z m46 -6 c4 -8 3 -23 0 -32 -6 -15 -8 -15 -22 -2 -8 9 -12 23 -8 32 8 21 23
22 30 2z"/>
<path d="M4960 2040 c0 -48 17 -54 22 -7 2 17 8 32 13 32 6 0 11 -15 13 -32 4
-44 22 -42 22 2 0 19 5 35 10 35 6 0 10 -16 10 -35 0 -19 5 -35 11 -35 6 0 9
16 7 37 l-3 38 -52 2 -53 3 0 -40z"/>
<path d="M5148 1816 c4 -34 3 -35 -34 -39 l-39 -4 38 -1 c37 -2 38 -3 36 -34
-2 -18 1 -33 6 -33 6 0 9 14 7 32 -3 32 -3 32 50 36 l53 3 -54 2 -53 2 6 35
c5 26 3 35 -7 35 -9 0 -12 -10 -9 -34z"/>
<path d="M4568 1393 c7 -3 16 -2 19 1 4 3 -2 6 -13 5 -11 0 -14 -3 -6 -6z"/>
<path d="M4633 1393 c9 -2 25 -2 35 0 9 3 1 5 -18 5 -19 0 -27 -2 -17 -5z"/>
<path d="M4728 1393 c7 -3 16 -2 19 1 4 3 -2 6 -13 5 -11 0 -14 -3 -6 -6z"/>
<path d="M4803 1393 c9 -2 23 -2 30 0 6 3 -1 5 -18 5 -16 0 -22 -2 -12 -5z"/>
<path d="M4893 1393 c9 -2 23 -2 30 0 6 3 -1 5 -18 5 -16 0 -22 -2 -12 -5z"/>
<path d="M4204 1347 c-69 -60 11 -156 94 -113 49 25 56 73 17 111 -31 32 -75
32 -111 2z"/>
<path d="M4630 1317 c0 -46 13 -67 41 -67 28 0 49 29 49 65 0 50 -18 52 -22 3
-2 -36 -7 -44 -25 -46 -21 -3 -23 1 -23 42 0 25 -4 46 -10 46 -5 0 -10 -19
-10 -43z"/>
<path d="M4740 1305 c0 -30 5 -55 10 -55 6 0 10 9 10 19 0 13 8 21 22 23 46 6
29 68 -18 68 -22 0 -24 -4 -24 -55z m48 18 c-5 -25 -28 -28 -28 -4 0 12 6 21
16 21 9 0 14 -7 12 -17z"/>
<path d="M4831 1346 c-15 -18 -5 -43 20 -49 28 -8 23 -25 -8 -29 -25 -4 -26
-5 -9 -13 22 -10 50 5 54 28 2 10 -7 22 -22 28 -31 15 -34 29 -5 29 11 0 17 5
14 10 -9 14 -31 12 -44 -4z"/>
<path d="M5124 1336 c-7 -18 3 -36 19 -35 9 0 9 2 0 6 -18 7 -16 33 2 33 18 0
20 -40 3 -60 -11 -12 -10 -12 5 0 23 17 19 64 -6 68 -9 2 -20 -3 -23 -12z"/>
<path d="M4631 1021 c-7 -5 -11 -21 -9 -37 4 -39 42 -41 46 -3 3 29 -17 52
-37 40z m29 -37 c0 -15 -6 -24 -15 -24 -15 0 -21 40 -9 53 12 11 24 -3 24 -29z"/>
<path d="M4681 1014 c0 -11 3 -14 6 -6 3 7 2 16 -1 19 -3 4 -6 -2 -5 -13z"/>
<path d="M4749 1013 c-8 -10 -9 -14 -2 -10 8 5 13 -3 16 -25 3 -29 4 -28 5 10
2 47 0 49 -19 25z"/>
<path d="M4800 1010 c-6 -12 -9 -24 -7 -27 3 -2 8 5 12 16 10 31 25 25 25 -10
0 -24 -4 -30 -15 -25 -8 3 -15 1 -15 -5 0 -6 8 -9 18 -7 12 2 17 13 17 37 0
40 -19 51 -35 21z"/>
<path d="M4865 1021 c-3 -5 -1 -12 5 -16 5 -3 10 1 10 9 0 18 -6 21 -15 7z"/>
<path d="M4575 1010 c-3 -5 -2 -10 4 -10 5 0 12 -12 14 -27 3 -23 4 -21 6 10
1 35 -11 49 -24 27z"/>
<path d="M4185 990 c-17 -7 -15 -9 13 -9 17 -1 35 -1 39 -2 4 0 9 4 11 10 4
13 -34 13 -63 1z"/>
<path d="M5202 989 c2 -6 7 -10 11 -10 4 1 19 1 35 1 21 0 24 2 12 10 -20 13
-63 13 -58 -1z"/>
<path d="M4708 973 c7 -3 16 -2 19 1 4 3 -2 6 -13 5 -11 0 -14 -3 -6 -6z"/>
<path d="M5148 923 c-2 -5 -1 -26 3 -48 4 -26 7 -31 8 -15 1 14 4 35 7 48 6
20 -10 33 -18 15z"/>
</g>
</svg>
